<?xml version="1.0" encoding="iso-8859-1"?>
<!-- Generator: Adobe Illustrator 16.0.0, SVG Export Plug-In . SVG Version: 6.00 Build 0)  -->
<!DOCTYPE svg PUBLIC "-//W3C//DTD SVG 1.1//EN" "http://www.w3.org/Graphics/SVG/1.1/DTD/svg11.dtd">
<svg version="1.1" id="Capa_1" xmlns="http://www.w3.org/2000/svg" xmlns:xlink="http://www.w3.org/1999/xlink" x="0px" y="0px"
	 width="63.665px" height="63.665px" viewBox="0 0 63.665 63.665" style="enable-background:new 0 0 63.665 63.665;"
	 xml:space="preserve">
<g>
	<g>
		<polygon points="44.353,21.586 44.423,21.58 44.416,21.58 		"/>
		<polygon points="37.779,18.016 37.779,18.017 37.775,18.01 		"/>
		<path d="M42.272,25.146c0.011-0.006,0.018-0.011,0.018-0.011S42.279,25.142,42.272,25.146L42.272,25.146L42.272,25.146z"/>
		<path d="M37.208,18.916c0.007,0.011,0.013,0.021,0.018,0.029c-0.001-0.002-0.003-0.004-0.003-0.006
			C37.219,18.932,37.213,18.924,37.208,18.916z"/>
		<polygon points="14.888,18.192 14.89,18.189 14.88,18.198 		"/>
		<path d="M59.498,11.52H4.167C1.869,11.52,0,13.413,0,15.741v32.182c0,2.327,1.869,4.222,4.167,4.222h55.331
			c2.298,0,4.167-1.893,4.167-4.222V15.741C63.665,13.413,61.795,11.52,59.498,11.52z M62.032,36.215
			c-0.034,0.042-0.194,0.126-0.194,0.126s0.043,0.068-0.05,0.059c-0.094-0.008-0.194,0.076-0.194,0.076l-0.011,0.025l-0.039,0.085
			c0,0-0.145,0.126-0.354,0.276c-0.212,0.153-0.145-0.066-0.145-0.066s0.094-0.086,0.177-0.136c0.085-0.051-0.004-0.142-0.032-0.151
			c-0.178-0.06-0.076-0.126,0.032-0.126c0.11,0,0.085-0.035,0.118-0.085c0.033-0.051,0.134-0.186,0.134-0.186s0-0.075,0-0.186
			c0-0.108,0.018-0.354,0.018-0.429c0-0.074,0.062,0.018,0.09,0.068c0.001,0.002,0.002,0.004,0.003,0.006
			c0.024,0.052,0.059,0.041,0.093,0.076c0.034,0.034,0.042,0.066,0.042,0.117c0,0.052-0.051,0.052-0.051,0.052s0,0.041-0.041,0.092
			c-0.043,0.051,0.016,0.068,0.016,0.068l0.118-0.094l-0.05,0.153c0,0,0.008,0.066,0.033,0.092c0.024,0.025,0.033,0.034,0.084,0.034
			s0.051-0.009,0.118-0.042c0.067-0.034,0.142-0.026,0.142-0.026S62.065,36.173,62.032,36.215z M29.998,13.613l0.012-0.01
			l0.039-0.036h0.148l0.043,0.03l0.072-0.021l0.117-0.038l0.109,0.017l0.025,0.029l0.122-0.008l0.105-0.018l0.072,0.004v0.008
			l0.08-0.017l0.127,0.017l0.084-0.004l0.014,0.036l0.002,0.006l0.019-0.006l0.095-0.031c0,0,0.055,0.019,0.095,0.031
			c0.012,0.004,0.026,0.008,0.033,0.01c0.025,0.009,0.097,0.025,0.117,0.03c0.021,0.004,0.143-0.013,0.143-0.013l0.076,0.068
			c0,0,0.072,0.021,0.084,0.029s0.055,0.084,0.055,0.084l-0.003,0.002c0.009,0.005,0.019,0.01,0.028,0.015
			c0.109,0.06-0.05,0.109-0.025,0.109c0.025,0,0.261-0.008,0.319-0.017c0.06-0.008,0.253-0.033,0.497-0.033
			c0.244,0,0.235,0.067,0.235,0.067s-0.066,0.059-0.177,0.067c-0.109,0.008-0.177,0.042-0.253,0.042s-0.144,0.126-0.456,0.21
			c-0.311,0.083-0.303,0.135-0.303,0.135s0.235,0.093,0.278,0.109c0.042,0.018-0.101,0.05-0.303,0.05
			c-0.202,0-0.076,0.103,0.101,0.103c0.177,0,0.084,0.118,0.084,0.118s-0.219,0.083-0.102,0.083c0.118,0,0.025,0.05-0.076,0.11
			c-0.058,0.034-0.152,0.034-0.212,0.028c0.043,0.015,0.092,0.041,0.086,0.073c-0.009,0.051-0.101,0-0.169,0
			c-0.066,0-0.109,0-0.245,0c-0.135,0-0.235,0.025-0.278,0.025c-0.042,0,0.05,0.058,0.143,0.1c0.093,0.042,0.109,0.035,0.169,0.092
			c0.06,0.059,0.05,0.059,0.134,0.152c0.084,0.093-0.017,0.119-0.168,0.119s-0.186-0.06-0.194-0.119
			c-0.009-0.06-0.144,0.009-0.144,0.009s-0.194,0.101-0.092,0.109c0.101,0.008,0.438,0.075,0.48,0.075
			c0.043,0,0.093-0.017-0.161,0.042c-0.252,0.06-0.538,0.169-0.614,0.169s-0.152,0.058-0.336,0.101
			c-0.186,0.043-0.169,0.025-0.345,0.06c-0.177,0.034-0.068,0.076-0.203,0.152c-0.135,0.076-0.135,0.084-0.413,0.193
			c-0.277,0.109-0.21,0.017-0.346,0.017c-0.134,0-0.193,0.092-0.227,0.092c-0.034,0,0,0.052,0,0.134
			c0,0.083-0.034,0.102-0.202,0.211c-0.168,0.109-0.177,0-0.16,0.067c0.017,0.068-0.076,0.161-0.076,0.161S28.06,17.205,28,17.272
			l-0.135,0.101c-0.142,0-0.193,0-0.235-0.05c-0.042-0.051-0.059-0.11-0.084-0.11c-0.025,0-0.109,0.009-0.236-0.025
			c-0.126-0.034-0.126-0.109-0.203-0.177c-0.075-0.068-0.016-0.287-0.025-0.404c-0.008-0.118-0.033-0.167-0.05-0.379
			c-0.017-0.211,0.202-0.328,0.202-0.328s0.236-0.084,0.304-0.093c0.067-0.009,0.134-0.126,0.109-0.126s-0.202-0.025-0.303-0.077
			c-0.101-0.051,0.018-0.092,0.109-0.092c0.093,0,0.253,0.076,0.253,0.076s-0.101-0.161-0.109-0.22
			c-0.008-0.058-0.118,0.05-0.278,0.068c-0.16,0.017-0.118-0.102-0.118-0.102s0.16-0.017,0.244-0.101
			c0.084-0.084-0.009-0.21-0.017-0.328c-0.008-0.119-0.051-0.101-0.262-0.194c-0.21-0.092-0.261,0.035-0.455,0.035
			s-0.144-0.025-0.396-0.076c-0.253-0.051,0.371-0.177,0.371-0.177s-0.27-0.017-0.497-0.017c-0.227,0-0.067-0.126,0.186-0.126
			c0.252,0,0.438-0.109,0.632-0.109s0.134-0.093-0.009-0.118s0.573-0.16,0.573-0.16s0.177-0.009,0.194-0.035
			c0.018-0.025,0.219-0.084,0.287-0.084c0.066,0,0.227,0,0.472,0s0.134,0.043,0.134,0.043l0.134-0.016l0.093-0.09l0.134-0.025
			l0.097-0.042l0.021,0.025l0.084,0.005l0.071-0.025l0.051,0.004l0.105-0.076l0.047,0.013l0.13-0.009l0.059,0.021l0.097-0.046
			l0.037-0.024l0.03-0.019l0.118,0.004l0.017,0.015L29.998,13.613z M56.311,36.806c0-0.094,0.143-0.094,0.185-0.043
			c0.041,0.051,0.024,0.043,0.127,0.043c0.101,0,0.244-0.085,0.244-0.085s0.059-0.041,0.008,0.085s-0.255,0.344-0.33,0.344
			c-0.076,0-0.144,0.102-0.261,0.102c-0.118,0-0.01-0.235,0.016-0.261C56.327,36.967,56.311,36.898,56.311,36.806z M56.815,36.392
			l-0.134-0.169l-0.27,0.151l-0.085-0.033l-0.066-0.068l-0.151-0.065l-0.219-0.102l0.101-0.134l-0.018-0.237h-0.1l0.083-0.202
			c-0.201,0.152-0.218,0.051-0.218,0.051c0.135-0.032,0.218-0.236,0.218-0.236l0.019-0.184l-0.22,0.202l-0.287,0.186
			c0,0-0.032-0.169-0.032-0.271s-0.152-0.253-0.203-0.27s-0.168-0.017-0.253-0.068c-0.084-0.049-0.286-0.033-0.539,0.102
			c-0.252,0.134-0.286,0.05-0.286,0.05c-0.488-0.017-0.388,0.253-0.574,0.338c-0.186,0.084-0.236,0-0.438,0
			c-0.202,0-0.472,0.169-0.606,0.202c-0.136,0.032-0.186,0.017-0.303-0.068c-0.118-0.084,0.017-0.219,0.017-0.219
			s0.117-0.033,0.201-0.134c0.085-0.102,0-0.388,0-0.488c0-0.102-0.051-0.186-0.051-0.388c0-0.203-0.05-0.338,0.051-0.422
			c0.102-0.085-0.051-0.118-0.017-0.354c0.033-0.236,0.169-0.202,0.186-0.271c0.017-0.067,0.051-0.236,0.236-0.32
			c0.186-0.085,0.237-0.168,0.354-0.186c0.118-0.017,0.32-0.101,0.472-0.101s0.168-0.152,0.235-0.152
			c0.068,0,0.185-0.118,0.185-0.202s0.153-0.354,0.153-0.354l0.102,0.202l0.032-0.169l0.085,0.017l0.084-0.118
			c0,0,0.051-0.152,0.118-0.235c0.067-0.084,0.185-0.052,0.252-0.084c0.067-0.035,0.086-0.102,0.22-0.052
			c0.136,0.052,0.084,0.203,0.084,0.203s0,0,0.235,0c0.236,0,0.035-0.066,0.017-0.203c-0.017-0.134,0.086-0.218,0.254-0.286
			c0.167-0.067,0.1-0.017,0.236-0.017c0.135,0,0.05-0.252,0.152-0.167c0.1,0.084,0.319,0.101,0.421,0.101
			c0.101,0,0.151,0.017,0.285,0.068c0.137,0.051,0,0.068-0.134,0.152c-0.135,0.084-0.135,0.068-0.101,0.152
			c0.033,0.084-0.085,0.084-0.085,0.084s-0.067,0.051,0.051,0.152c0.118,0.101,0.084,0.101,0.201,0.203
			c0.118,0.101,0.085,0.017,0.219,0.117c0.136,0.102,0.052,0.084,0.187,0.135c0.135,0.05,0.135-0.05,0.252-0.152
			c0.118-0.101,0.085-0.354,0.085-0.472c0-0.119,0.033-0.253,0.118-0.556c0.084-0.303,0.168-0.034,0.168-0.034l0.102,0.606
			c0.084-0.118,0.201,0.118,0.201,0.118l0.052,0.775c0,0,0.235,0.102,0.404,0.27c0.169,0.169-0.017,0.456,0.051,0.388
			c0.066-0.067,0.185-0.034,0.151,0.084c-0.033,0.116,0.033,0.169,0.033,0.169c0.236,0.336,0.118,0.707,0.118,0.707
			c0.201,0.219-0.186,0.656-0.404,0.893c-0.219,0.237-0.236,0.237-0.287,0.237c-0.05,0-0.118,0.184-0.369,0.388
			c-0.254,0.203-0.22,0.287-0.338,0.488c-0.117,0.202-0.151-0.017-0.371,0.051C56.917,36.258,56.815,36.392,56.815,36.392z
			 M49.363,25.204c-0.023-0.18-0.091-0.09-0.112-0.203c-0.023-0.113-0.158-0.147-0.214-0.192c-0.041-0.032-0.07-0.047-0.092-0.071
			c-0.007-0.008-0.015-0.018-0.021-0.029c-0.021-0.043-0.111-0.179-0.111-0.179s-0.191,0.021-0.227,0.021
			c-0.023,0-0.069,0.012-0.136,0.023c-0.026,0.004-0.056,0.008-0.088,0.011c-0.113,0.012-0.136,0.08-0.226,0.08
			s-0.067,0.157-0.09,0.235c-0.022,0.078-0.111,0.102-0.169,0.089c-0.056-0.012-0.077,0.101-0.077,0.101s-0.034,0.09-0.091,0.113
			c-0.057,0.022-0.112,0.089-0.157,0.157c-0.045,0.067-0.136,0.111-0.146,0.202c-0.011,0.09-0.124,0.202-0.259,0.202
			c-0.134,0-0.066,0.191-0.066,0.281s0.055,0.169,0.055,0.281c0,0.113-0.067,0.101-0.067,0.213c0,0.111,0.022,0.102,0.022,0.214
			c0,0.111-0.102,0.146-0.134,0.19c-0.034,0.045-0.08,0.113-0.08,0.113s0,0.134-0.179,0.179c-0.179,0.045-0.258-0.416-0.291-0.551
			c-0.034-0.134-0.237-0.359-0.248-0.527c-0.01-0.169-0.156-0.338-0.214-0.45c-0.055-0.112-0.111-0.292-0.145-0.46
			c-0.034-0.168-0.044-0.46-0.089-0.686c-0.046-0.224-0.046,0.103-0.191,0.191c-0.146,0.09-0.247-0.011-0.247-0.011l-0.203-0.258
			c0.214-0.012,0.237-0.136,0.237-0.136c-0.347,0.077-0.29-0.094-0.393-0.144c-0.018-0.009-0.04-0.014-0.068-0.014
			c-0.201,0-0.169-0.101-0.234-0.224c-0.068-0.124-0.091-0.011-0.416-0.022c-0.208-0.008-0.32,0.004-0.403,0.013
			c-0.047,0.005-0.084,0.009-0.125,0.009c-0.113,0-0.28-0.079-0.494-0.113s-0.203-0.235-0.27-0.303
			c-0.068-0.067-0.271,0.136-0.439,0.102c-0.169-0.033-0.269-0.213-0.269-0.213c-0.227-0.078-0.328-0.281-0.417-0.449
			c-0.09-0.169-0.291,0.112-0.291,0.19c0,0.024,0.014,0.059,0.036,0.098c0.054,0.095,0.157,0.22,0.244,0.306
			c0.122,0.124,0.022,0.112,0.101,0.258c0.066,0.123,0.211,0.286,0.29,0.313c0.015,0.006,0.026,0.007,0.035,0.001
			c0.057-0.033,0.28,0,0.371-0.045c0.089-0.044,0.326-0.348,0.326-0.348s0.006,0.115,0.025,0.199c0.005,0.024,0.012,0.045,0.02,0.06
			c0.032,0.068,0.112,0.113,0.168,0.158s0.157,0.032,0.19,0.032c0.034,0,0.089,0.101,0.134,0.147
			c0.045,0.044,0.045,0.033,0.079,0.09c0.035,0.057,0.045,0.191-0.089,0.303c-0.135,0.112-0.08,0.112-0.18,0.112
			c-0.102,0-0.034,0.135-0.034,0.168c0,0.034,0,0.124,0,0.124s-0.146,0.045-0.156,0.146c-0.013,0.101-0.058,0.079-0.202,0.079
			c-0.147,0,0.022,0.157-0.034,0.168c-0.056,0.011-0.135,0.011-0.224,0.011c-0.082,0-0.099,0-0.126,0c-0.003,0-0.007,0-0.011,0
			c-0.032,0-0.09,0.09-0.101,0.169c-0.011,0.08-0.09,0.08-0.202,0.135s-0.124,0.134-0.27,0.134c-0.147,0-0.158,0.158-0.158,0.158
			s-0.234,0.089-0.427,0.089c-0.19,0-0.057,0.068-0.224,0.124c-0.169,0.056-0.159,0-0.214-0.068
			c-0.058-0.067-0.058-0.123-0.079-0.27c-0.023-0.146,0-0.225,0-0.326c0-0.06,0.004-0.09-0.011-0.126
			c-0.008-0.025-0.025-0.051-0.058-0.087c-0.078-0.09-0.19-0.112-0.28-0.326c-0.089-0.214-0.146-0.168-0.292-0.281
			c-0.146-0.112-0.101-0.46-0.101-0.46c-0.068-0.27-0.157-0.202-0.271-0.315c-0.111-0.112-0.045-0.213-0.214-0.438
			c-0.169-0.224-0.124-0.124-0.225-0.291c-0.035-0.06-0.06-0.153-0.076-0.251c-0.03-0.177-0.036-0.373-0.036-0.423
			c0-0.079-0.011-0.135-0.011-0.225c0-0.089,0.067-0.112,0.123-0.157c0.005-0.003,0.007-0.007,0.012-0.01
			c0.044-0.042,0.044-0.095,0.056-0.146c0.011-0.056,0-0.303,0-0.371c0-0.03-0.003-0.048-0.009-0.06
			c-0.011-0.015-0.026-0.02-0.06-0.02c-0.056,0-0.169,0-0.246-0.021c-0.079-0.023-0.023,0.112-0.157,0.123
			c-0.135,0.011-0.123,0-0.226-0.09c-0.1-0.09-0.19-0.021-0.19-0.021s-0.045,0.056-0.078,0.089
			c-0.034,0.033-0.102-0.012-0.102-0.012l-0.214-0.023c0,0-0.044-0.101-0.066-0.157c-0.023-0.056-0.068-0.067-0.124-0.067
			c-0.058,0-0.103-0.102-0.124-0.157c-0.022-0.056-0.045-0.123-0.045-0.269c0-0.086,0.007-0.109,0.014-0.115
			c-0.03-0.008-0.134-0.04-0.171-0.087c-0.005-0.005-0.009-0.01-0.013-0.013c-0.04-0.033-0.076,0.015-0.18,0.035
			c-0.11,0.023,0,0-0.056,0.068c-0.057,0.067-0.068,0.101-0.124,0.021c-0.057-0.079-0.033,0.057-0.033,0.057l0.089,0.157
			l0.169,0.191l-0.068,0.067l-0.145-0.067l0.089,0.112l-0.056,0.011l0.011,0.113c0,0-0.134-0.011-0.179-0.023
			c-0.045-0.011-0.124-0.068-0.124-0.068L36.9,21.452c0,0-0.012-0.124-0.035-0.191c-0.017-0.056-0.021-0.086-0.059-0.091
			c-0.008-0.001-0.019-0.001-0.03,0.001c-0.067,0.011-0.112-0.179-0.135-0.213c-0.022-0.034-0.011-0.258-0.011-0.258l-0.21-0.168
			l-0.016-0.011c0,0-0.089,0-0.134-0.012c-0.045-0.011-0.068-0.068-0.157-0.101c-0.09-0.034-0.136-0.146-0.168-0.169
			c-0.035-0.022-0.091-0.068-0.182-0.179c-0.026-0.033-0.043-0.048-0.056-0.054c-0.031-0.013-0.042,0.031-0.113,0.031
			c-0.101,0-0.044,0.203-0.044,0.203s0.057,0.056,0.168,0.135c0.112,0.078,0.125,0.135,0.125,0.135l0.056,0.124l0.168,0.055
			c0,0,0.012,0.079,0.044,0.102c0.035,0.022,0.112,0,0.326,0.157c0.214,0.158,0.079,0.27-0.034,0.124
			c-0.112-0.146-0.213-0.011-0.167,0.023c0.044,0.035,0.179,0.191,0.111,0.191c-0.068,0-0.102,0.067-0.146,0.146
			s-0.167,0.09-0.167,0.09l-0.079,0.202c0,0-0.36-0.146-0.393-0.19c-0.034-0.045,0.01-0.101,0.122-0.101
			c0.113,0,0.113-0.022,0.292-0.022s0.056-0.08,0.157-0.101c0.102-0.023-0.033-0.079-0.146-0.281
			c-0.111-0.202-0.213-0.146-0.313-0.18c-0.102-0.034-0.19-0.124-0.314-0.225s-0.113-0.055-0.113-0.19
			c0-0.136-0.068-0.136-0.259-0.181c-0.157-0.037-0.146,0.019-0.163,0.071c-0.004,0.01-0.01,0.022-0.017,0.03
			c-0.045,0.057-0.077,0.125-0.18,0.146c-0.101,0.023-0.247-0.089-0.393-0.089s-0.113,0.157-0.113,0.157l-0.067,0.235
			c0,0-0.089,0.045-0.179,0.045s-0.113,0.112-0.237,0.213c-0.123,0.101,0.012,0.314-0.068,0.314c-0.077,0-0.089,0.214-0.146,0.203
			c-0.056-0.011-0.134,0.124-0.134,0.124s-0.078,0-0.202,0s-0.146,0.033-0.259,0.033c-0.111,0-0.067,0.113-0.134,0.124
			c-0.067,0.012-0.078-0.01-0.112-0.136c-0.034-0.124-0.146-0.101-0.191-0.066c-0.004,0.004-0.009,0.007-0.012,0.01
			c-0.024,0.016-0.004-0.01-0.122-0.01c-0.135,0-0.113-0.034-0.113-0.034s-0.011-0.28-0.067-0.28s-0.011-0.111,0.022-0.169
			c0.034-0.056,0.135-0.112,0.135-0.292c0-0.104-0.008-0.184-0.014-0.234c-0.005-0.038-0.008-0.057-0.008-0.057
			c-0.124-0.179,0.225-0.247,0.225-0.247l0.808,0.101c0,0,0.048-0.024,0.1-0.041c0.027-0.008,0.058-0.015,0.082-0.015
			c0.066,0,0.032-0.236,0.032-0.326c0-0.089-0.022-0.168-0.032-0.202c-0.012-0.033-0.103-0.123-0.227-0.236
			c-0.124-0.113-0.201,0-0.201-0.045s0-0.168,0.055-0.179c0.058-0.012,0.227,0.022,0.227,0.022s0.077-0.011,0.156-0.011
			s0.045-0.023,0.022-0.113c-0.022-0.09-0.012-0.111,0.067-0.033c0.079,0.078,0.213,0.023,0.213,0.023s0.022-0.089,0.08-0.089
			c0.057,0,0.066-0.09,0.066-0.147c0-0.012,0.009-0.022,0.019-0.03c-0.043,0.014-0.104,0.023-0.14,0.027
			c-0.067,0.008-0.159,0.017-0.253,0.017c-0.093,0-0.101,0.008-0.186,0.008c-0.084,0-0.066,0.025-0.21,0.025
			c-0.143,0-0.219,0.042-0.219,0.042c0.017-0.152,0.126-0.202,0.236-0.194c0.108,0.008,0.159-0.126,0.159-0.126
			c-0.084,0.134-0.193,0.034-0.243,0.034c-0.051,0-0.119-0.051-0.109-0.084c0.008-0.034,0.135,0,0.185-0.026
			c0.051-0.025-0.093-0.134-0.051-0.134s0.034,0,0.186-0.076c0.151-0.076,0.025-0.101,0.025-0.101s-0.061-0.076-0.061-0.167
			c0-0.093-0.075-0.051-0.075-0.051s-0.16,0.035-0.193,0.035c-0.034,0,0.109-0.109,0.109-0.109h-0.101c0,0,0.075-0.042,0.126-0.059
			c0.049-0.017-0.11,0-0.152,0s0.066-0.093,0.066-0.093s-0.134-0.017-0.134-0.076c0-0.059,0.016-0.101,0.092-0.168
			c0.077-0.067,0.136-0.168,0.136-0.168l0.278,0.025c0,0-0.06,0.051-0.117,0.084c-0.061,0.033-0.086,0.101-0.077,0.126
			s0.067-0.05,0.135-0.05c0.068,0,0.228,0.041,0.228,0.041s-0.008,0.119-0.151,0.186c-0.145,0.068-0.152,0.084-0.152,0.084
			s0.067-0.042,0.219,0.008c0.151,0.05,0.076,0.219,0.076,0.219s0.043-0.043,0.126,0.025c0.084,0.067,0.033,0.085,0.067,0.193
			c0.033,0.109-0.051,0.084,0.008,0.136c0.06,0.05,0.145-0.051,0.212-0.026c0.067,0.026,0.033,0.035,0,0.118
			c-0.034,0.084-0.068,0.051-0.136,0.152c-0.067,0.101,0,0,0.102,0.058c0.032,0.019,0.036,0.033,0.023,0.046
			c0.045-0.019,0.104-0.03,0.125-0.051c0.032-0.032-0.017-0.065,0.125-0.097c0.006-0.001,0.013-0.003,0.021-0.004
			c0.167-0.034,0.1-0.057,0.179-0.203c0.077-0.146,0.09-0.044,0.337-0.123c0.011-0.004,0.021-0.007,0.032-0.012
			c0.207-0.068,0.149-0.078,0.192-0.078c0.045,0,0.078-0.146,0.078-0.146s-0.112-0.134-0.123-0.18c-0.012-0.045,0-0.112,0-0.158
			c0-0.044,0.135-0.056,0.135-0.056s0.044-0.035,0.089-0.079c0.045-0.044,0.101-0.056,0.157-0.056s-0.012,0.078-0.045,0.158
			c-0.034,0.079,0.067,0.022,0.102,0.067c0.032,0.045,0.011,0.045-0.079,0.101c-0.09,0.057-0.102,0.034-0.123,0.146
			c-0.021,0.113,0.068,0.068,0.101,0.102c0.033,0.033,0.102,0.056,0.146,0.056s0.134-0.023,0.169-0.056
			c0.032-0.034,0.145,0.056,0.145,0.056l0.083,0.023l0.041,0.01c0,0,0.179-0.057,0.269-0.089c0.091-0.034,0.258-0.079,0.258-0.079
			l0.091,0.09c0,0,0.337-0.011,0.236-0.045c-0.056-0.019,0.003-0.042,0.056-0.064c0.043-0.019,0.081-0.039,0.057-0.058
			c-0.057-0.045,0.022-0.09-0.012-0.136c-0.032-0.045,0.045-0.011-0.032-0.124c-0.08-0.113-0.09-0.125,0.056-0.181
			s0.247,0.113,0.247,0.113s0.022,0.068,0.112,0.056c0.073-0.009,0.093-0.102,0-0.19c-0.021-0.02-0.047-0.039-0.08-0.057
			c-0.179-0.101,0.124-0.235,0.124-0.235l0.416-0.012l0.068-0.045l0.135-0.079l-0.123-0.034h-0.081h-0.043
			c0,0-0.057,0.067-0.09,0.079c-0.034,0.011-0.079,0-0.113,0s-0.146,0.023-0.18,0.023c-0.033,0-0.146,0-0.202,0
			c-0.058,0-0.103-0.068-0.169-0.079c-0.067-0.011-0.067-0.056-0.067-0.056s-0.033-0.158-0.067-0.292s0.146-0.202,0.146-0.202
			s0.27-0.213,0.304-0.213c0.033,0,0.011-0.045,0.056-0.103c0.033-0.042-0.093-0.059-0.171-0.064
			c-0.024-0.002-0.046-0.003-0.054-0.003c-0.034,0-0.146,0.033-0.203,0.033c-0.056,0-0.066,0.056-0.134,0.102
			c-0.067,0.044,0.057,0.078,0.057,0.078s-0.089,0.079-0.224,0.169c-0.136,0.089-0.361,0.111-0.326,0.348
			c0.033,0.235,0.224,0.19,0.257,0.314c0.035,0.124-0.269,0.225-0.269,0.225s-0.034,0.135-0.023,0.281
			c0.012,0.146-0.067,0.168-0.146,0.168c-0.079,0-0.169,0-0.179,0.045c-0.013,0.046-0.045,0.068-0.113,0.068
			c-0.067,0-0.112-0.068-0.112-0.113s0.033-0.068-0.022-0.225c-0.058-0.157-0.022-0.157-0.146-0.212
			c-0.124-0.056,0.136-0.124,0.023-0.124c-0.014,0-0.023,0-0.035,0c-0.078-0.001-0.078-0.01-0.089-0.09
			c-0.012-0.089-0.09,0.103-0.135,0.114c-0.046,0.01-0.079,0.101-0.292,0.134c-0.214,0.033-0.203-0.056-0.203-0.056l-0.09-0.157
			l0.146-0.191l-0.179,0.079l-0.022-0.191l0.271-0.022l-0.214-0.011c0,0-0.044-0.068-0.044-0.101c0-0.035,0.056-0.035,0.134-0.067
			c0.077-0.034,0.101-0.034,0.134-0.057c0.033-0.022,0.057-0.169,0.057-0.169s0.169,0,0.202,0c0.032,0,0.056,0,0.101,0
			s0.078-0.135,0.135-0.135c0.056,0,0.146-0.123,0.189-0.134c0.045-0.012,0.08-0.135,0.08-0.135l0.045-0.123
			c0,0,0.102-0.101,0.134-0.112c0.033-0.012,0.102-0.023,0.113-0.103c0.011-0.078,0.056-0.134,0.089-0.111
			c0.034,0.023,0.203-0.011,0.203-0.011s0.022-0.124,0.056-0.136c0.034-0.011,0.146-0.033,0.146-0.089c0-0.057,0.057,0,0.146,0
			c0.091,0,0.101-0.022,0.101-0.022s0.101-0.023,0.136-0.023c0.033,0,0.102,0.035,0.102,0c0-0.033,0.045-0.089,0.146-0.123
			c0.101-0.033,0.157-0.011,0.157-0.011l-0.045,0.146l0.124-0.102L37.198,15.6l0.101-0.102l0.113-0.067l0.011,0.124l0.023-0.056
			c0,0,0.123,0.023,0.168,0.056c0.046,0.034,0.102,0.045,0.102,0.045s0,0-0.045,0s0.045,0.101,0.045,0.101s0.214-0.067,0.259-0.035
			c0.045,0.035,0.079,0.057,0.235,0.057c0.158,0,0.327,0.023,0.416,0.112c0.09,0.09,0.169,0.09,0.304,0.102
			c0.135,0.011,0.225,0.112,0.225,0.213c0,0.101-0.27,0.146-0.46,0.135c-0.192-0.011-0.395-0.1-0.439-0.1s-0.169-0.035-0.079,0.033
			s0.214,0.09,0.214,0.09s-0.045,0.067,0.023,0.146s0.033,0.123,0.033,0.123s0.09,0.012,0.135,0.012c0.044,0,0.111,0.045,0.19,0.112
			c0.078,0.067,0.145-0.034-0.034-0.112s-0.023-0.181,0.067-0.113c0.089,0.068,0.28,0.089,0.338,0.068
			c0.056-0.023-0.103-0.113-0.067-0.169c0.032-0.056,0.246-0.158,0.324-0.158s0.136,0.068,0.136,0.068s0.057,0.046,0.057-0.022
			c0-0.067-0.136-0.124-0.159-0.258c-0.021-0.136,0.013-0.136,0.146-0.136c0.135,0,0.314,0.136,0.157,0.136s-0.09,0.078-0.032,0.123
			c0.056,0.045,0.28,0.023,0.28,0.023l0.045-0.101c0,0,0.112-0.112,0.179-0.146c0.068-0.034,0.182-0.045,0.182-0.045
			s0.089-0.045,0.122-0.057c0.033-0.01,0.169-0.044,0.157,0.023c-0.011,0.068-0.078,0.113-0.078,0.113l0.191-0.012l0.066-0.068
			l0.248,0.034c0,0,0.079-0.101,0.146-0.101s0.112,0.056,0.112,0.056s0.012,0.113,0.09,0.023c0.078-0.089-0.101-0.146-0.101-0.146
			s-0.271-0.045-0.214-0.134c0.056-0.091,0.259,0.101,0.259,0.101s0.335-0.023,0.415-0.023c0.079,0,0.168,0,0.303,0.09
			c0.135,0.09,0.169,0.023,0.259,0.112c0.089,0.089,0.102,0.057,0.157,0.057s0.01-0.09,0.01-0.09s-0.101-0.023-0.123-0.089
			c-0.021-0.068-0.044-0.034-0.156-0.068c-0.113-0.033-0.068-0.089-0.068-0.089s-0.011-0.045-0.089-0.068
			c-0.08-0.022,0-0.112,0.056-0.112c0.057,0,0.057-0.089,0.023-0.202c-0.034-0.113,0.056-0.124,0.179-0.124
			c0.124,0,0.314,0.157,0.314,0.157s-0.045,0.158,0.022,0.191c0.067,0.035,0.102,0.067,0.18,0.146s0.034,0.089,0.045,0.18
			c0.012,0.09,0.078,0.067,0.135,0.101c0.056,0.033,0.089,0.056,0.065,0.18c-0.021,0.124-0.393,0.112-0.393,0.112
			c0.113,0.135,0.36,0.101,0.36,0.101l0.122,0.011c0,0-0.01-0.067,0.023-0.067s0.101-0.1,0.101-0.19
			c0-0.091-0.111-0.147-0.111-0.147s0.135-0.023,0.246-0.023c0.112,0,0.236,0.214,0.236,0.214l0.158-0.034
			c0,0-0.158,0.034-0.18-0.111c-0.023-0.147-0.393-0.112-0.528-0.112s-0.124-0.091-0.101-0.169c0.023-0.08-0.023-0.112-0.169-0.169
			c-0.146-0.056,0.033-0.168,0.033-0.168s-0.033-0.146,0.032-0.113c0.068,0.034,0.113,0.134,0.113,0.213
			c0,0.079,0.033,0.068,0.18,0.068c0.145,0,0.259,0,0.259,0s-0.349-0.135-0.338-0.168c0.011-0.034,0.101-0.034,0.236-0.045
			c0.134-0.011,0.201,0.113,0.415,0.147s-0.045-0.135-0.157-0.135c-0.111,0-0.213-0.202-0.213-0.202s0.527,0,0.696,0
			s-0.089-0.068-0.021-0.18c0.066-0.113,0.518-0.203,0.518-0.203s0.201,0.011,0.517,0.011c0.313,0,0.324-0.044,0.224-0.078
			s0.079-0.146,0.214-0.157c0.134-0.012,0.19,0.078,0.19,0.078s0.157,0,0.27,0.034c0.111,0.033,0.123,0.056,0.123,0.056
			s0.338-0.021,0.719,0.068c0.383,0.089,0.078,0.235-0.101,0.291c-0.094,0.029-0.16,0.089-0.2,0.139
			c0.02-0.003,0.044-0.004,0.077-0.004c0.235,0,0.395-0.067,0.395-0.067l0.932,0.034l0.012,0.078l0.585,0.023l-0.103-0.146
			c0,0,0.495,0.023,0.698,0.079c0.201,0.057,0.278,0.202,0.336,0.271c0.057,0.067,0.359,0.145,0.438,0.135
			c0.078-0.012-0.034-0.225-0.034-0.225l0.102,0.091c0,0,0.112,0.021,0.169,0.021s0.124-0.021,0.124-0.021s0.157-0.012,0.225,0.011
			c0.067,0.021,0.146,0.021,0.271,0.021s-0.214-0.19-0.214-0.19l0.101-0.023c0,0,0.606-0.011,0.73,0.056
			c0.124,0.068,0.011,0.136,0.011,0.136s0.09-0.011,0.09-0.079c0-0.067,0.191-0.045,0.303-0.045c0.113,0,0.125,0.102,0.125,0.102
			l0.258,0.012c0,0,0.113,0.111,0.281,0.123c0.169,0.012,0.246-0.067,0.427-0.067c0.179,0,0.584,0.101,0.663,0.179
			c0.078,0.079,0.246,0.068,0.304,0.068c0.056,0,0.335,0,0.493,0c0.157,0,0.427,0.033,0.472,0.045
			c0.045,0.011,0.113,0.089,0.282,0.112c0.167,0.023-0.214-0.213-0.214-0.213s0.314,0.023,0.393,0.023c0.079,0,0.539,0,0.785,0.101
			c0.249,0.101,0.428,0.124,0.606,0.157c0.182,0.034,0.473,0.045,0.63,0.169c0.157,0.123,0.369,0.19,0.369,0.19l-0.156-0.169
			c0,0,0.438,0.067,0.618,0.112c0.179,0.044,0.168,0.067,0.168,0.147c0,0.078-0.202,0.011-0.202,0.011
			c0.146,0.079,0.235,0.19,0.235,0.19s-0.169-0.011-0.271-0.011c-0.1,0-0.348-0.09-0.415-0.158
			c-0.067-0.067-0.134-0.011-0.291-0.021c-0.157-0.011-0.136-0.023-0.181-0.09c-0.045-0.067-0.214-0.067-0.067,0.045
			s-0.068,0.169-0.236,0.157c-0.168-0.011,0.058,0.068,0.18,0.068c0.124,0,0.213,0.033,0.382,0.168
			c0.169,0.136,0.281,0.181,0.281,0.181s-0.113-0.023-0.202-0.023c-0.09,0-0.045,0.124-0.27,0.134
			c-0.227,0.011-0.079,0.135-0.158,0.236c-0.078,0.101,0,0.157-0.068,0.09c-0.065-0.067-0.426-0.012-0.415-0.09
			c0.013-0.078-0.111,0.18-0.146,0.078c-0.032-0.101-0.055,0.012-0.145,0.012c-0.089,0-0.158,0.034-0.102,0.124
			c0.058,0.089,0.058,0.068,0.058,0.168c0,0.1,0.077,0.078,0.156,0.044s0.124,0.09,0.124,0.09s0.012,0.135,0.167,0.135
			c0.158,0,0.057,0.056,0.147,0.111c0.09,0.057-0.147-0.022-0.192,0.011c-0.045,0.034-0.01,0.067,0.169,0.181
			c0.179,0.112,0.079,0.146,0,0.146c-0.077,0-0.179,0.023-0.09,0.112c0.09,0.09,0.124,0.146,0.124,0.146l-0.153-0.009
			c0.021,0.021,0.052,0.055,0.098,0.11c0.19,0.225-0.068,0.281-0.068,0.281l-1.021-0.978c0,0-0.034-0.068-0.022-0.1
			c0.01-0.034-0.013-0.068-0.035-0.18c-0.021-0.112,0.09-0.089,0.124-0.124c0.035-0.033,0.035-0.101,0.035-0.19
			s-0.058-0.158,0.066-0.213c0.125-0.057,0.012-0.123,0.012-0.123l-0.113-0.192h-0.191l0.067,0.068v0.168
			c0,0-0.01,0.079-0.156,0.057c-0.146-0.023-0.157-0.18-0.157-0.18l-0.416,0.022c0,0-0.011,0.112-0.011,0.18
			s-0.045,0.124-0.045,0.124l0.09,0.079l0.134,0.079c0,0-0.404,0.045-0.427,0.011c-0.022-0.034,0,0,0.022-0.034
			c0.023-0.034-0.202-0.078-0.291-0.078c-0.09,0-0.182-0.012-0.182-0.012l-0.066,0.078c0,0-0.574,0-0.697,0
			c-0.124,0-0.113,0.08-0.124,0.135c-0.011,0.057,0,0.101,0.021,0.134c0.023,0.035-0.057,0.068-0.1,0.124
			c-0.045,0.057-0.035,0.068-0.035,0.168c0,0.101-0.079,0.135-0.134,0.192c-0.058,0.055-0.023,0.101-0.023,0.101
			s0.179-0.023,0.235-0.023s0.102,0.112,0.169,0.18c0.068,0.067,0.068-0.034,0.136,0.034c0.068,0.066,0.136,0.01,0.045-0.09
			c-0.09-0.101,0.202-0.044,0.337,0.045c0.134,0.089,0.189,0.101,0.27,0.202c0.024,0.032,0.031,0.04,0.032,0.04
			c0.005,0.008,0.017,0.028,0.046,0.073c0.101,0.157,0.078,0.258,0.134,0.348c0.057,0.09,0.113,0.123,0.203,0.235
			c0.089,0.113,0.022,0.068,0.011,0.191c-0.011,0.124,0.012,0.157,0.012,0.293c0,0.134,0,0.111-0.125,0.314
			c-0.124,0.203-0.124,0.247-0.124,0.281c0,0.034-0.11,0.124-0.179,0.124c-0.067,0-0.179,0.01-0.201-0.079
			c-0.013-0.05-0.06-0.014-0.098,0.027c-0.019,0.019-0.035,0.04-0.047,0.056c-0.008,0.01-0.014,0.019-0.014,0.019
			s-0.011,0.055-0.023,0.123c-0.01,0.068-0.032,0.079,0.023,0.112c0.057,0.034-0.011,0.135-0.011,0.135s-0.013,0.18-0.146,0.18
			c-0.135,0-0.045,0.101,0.023,0.123c0.068,0.023,0.18,0.057,0.225,0.112c0.045,0.057,0.068,0.113,0.202,0.226
			c0.135,0.112,0.101,0.146,0.18,0.27c0.079,0.123,0.011,0.213,0.011,0.213s-0.146,0-0.27,0.033C54.044,22.13,54.034,22.13,54,22.13
			s-0.067-0.101-0.056-0.225c0.011-0.124-0.09-0.18-0.135-0.202c-0.044-0.023,0.079-0.034,0.079-0.034s-0.09-0.1-0.123-0.146
			c-0.034-0.046-0.169-0.012-0.271-0.012s-0.066-0.056-0.066-0.168c0-0.111-0.046-0.146-0.035-0.179
			c0.013-0.033-0.146-0.068-0.146-0.068s-0.036,0.012-0.072,0.022c-0.024,0.006-0.049,0.013-0.062,0.013
			c-0.033,0-0.202,0.045-0.214,0.146c-0.011,0.101-0.179,0.01-0.11,0c0.066-0.012,0.066-0.136,0.021-0.136
			c-0.044,0-0.021-0.079,0.023-0.091c0.045-0.011,0-0.134-0.112-0.146c-0.113-0.01-0.091,0.103-0.146,0.158
			c-0.058,0.056-0.113,0.056-0.113,0.056v0.113l-0.237-0.012c-0.011,0.134,0.146,0.213,0.227,0.213c0.077,0,0.124-0.012,0.111,0.056
			c-0.011,0.068,0.034,0.135,0.113,0.135c0.078,0,0.045-0.033,0.101-0.078c0.057-0.045,0.102-0.09,0.157-0.012
			c0.057,0.079,0.068,0,0.146,0s0.057,0.012,0.089,0.09c0.034,0.079-0.045,0.056-0.045,0.056c-0.19,0-0.348,0.404-0.291,0.404
			c0.056,0,0.169,0.045,0.304,0.212c0.134,0.169,0.09,0.214,0.224,0.304s-0.101,0.045-0.101,0.045
			c0.169,0.023,0.292,0.203,0.258,0.203c-0.033,0-0.179,0.101-0.179,0.101c0.214,0,0.282,0.157,0.282,0.192
			c0,0.033-0.045,0.225-0.09,0.336c-0.045,0.112-0.09,0.134-0.102,0.202c-0.012,0.067,0,0.101-0.022,0.19
			c-0.022,0.091-0.158,0.225-0.236,0.316c-0.079,0.09-0.124,0.247-0.28,0.247c-0.158,0-0.259,0.134-0.371,0.146
			c-0.113,0.011-0.168,0.068-0.168,0.068s-0.227,0.045-0.282,0.067c-0.056,0.023,0.011,0.135,0.011,0.179
			c0,0.045-0.09,0-0.135-0.023c-0.045-0.022-0.021-0.089-0.021-0.089s0-0.057-0.012-0.134c-0.01-0.068-0.193-0.019-0.281-0.004
			c-0.012,0.003-0.025,0.004-0.033,0.004c-0.057,0-0.066,0.112-0.123,0.112s-0.035,0.045-0.045,0.101
			c-0.012,0.056-0.045,0.068-0.102,0.101c-0.055,0.033-0.045,0.135-0.045,0.202c0,0.067,0.114,0.123,0.192,0.212
			c0.078,0.091,0.146,0.179,0.403,0.405c0.259,0.224,0.192,0.483,0.192,0.663c0,0.179-0.056,0.168-0.157,0.27
			c-0.101,0.101-0.246,0.089-0.246,0.089s0,0.102,0,0.157c0,0.057-0.124,0.103-0.158,0.147c-0.033,0.045-0.101,0.079-0.134,0.056
			c-0.034-0.022-0.068-0.191-0.057-0.235c0.012-0.045-0.089-0.035-0.057-0.09c0.004-0.007,0.004-0.014,0.004-0.02
			c-0.014-0.046-0.165-0.079-0.194-0.059c-0.033,0.023-0.079-0.056-0.103-0.157c-0.006-0.028-0.018-0.06-0.029-0.087
			c-0.031-0.069-0.071-0.126-0.071-0.126l-0.225-0.045l-0.022-0.147c0,0-0.146,0.044-0.146,0.135c0,0.03-0.006,0.074-0.017,0.122
			c-0.019,0.095-0.051,0.205-0.073,0.249c-0.033,0.068-0.012,0.213,0.045,0.27c0.057,0.057,0.102,0.112,0.146,0.213
			c0.045,0.101,0.022,0.18,0.045,0.247c0.023,0.068,0.214,0.112,0.258,0.112c0.045,0,0.113,0.09,0.214,0.226
			c0.102,0.135,0.113,0.157,0.113,0.348c0,0.191,0,0.124,0.068,0.225c0.066,0.101,0.01,0.179-0.035,0.179s-0.078,0.023-0.179-0.033
			c-0.101-0.057-0.191-0.125-0.259-0.237c-0.066-0.112-0.055-0.18-0.089-0.235c-0.034-0.057-0.124-0.135-0.124-0.236
			c0-0.1,0.022-0.202-0.056-0.259c-0.079-0.056-0.089-0.168-0.112-0.225s-0.146-0.045-0.203-0.146
			c-0.056-0.101,0.035-0.089,0.035-0.146c0-0.057-0.035-0.338-0.022-0.439c0.01-0.101,0-0.191-0.035-0.258
			c-0.033-0.067-0.102-0.213-0.112-0.28c-0.012-0.068-0.034-0.213-0.034-0.213s-0.056-0.179-0.122-0.258
			c-0.067-0.078-0.044,0.079-0.271,0.191c-0.225,0.112-0.27-0.135-0.213-0.27C49.508,25.338,49.384,25.383,49.363,25.204z
			 M46.81,45.127l-0.494-0.742c-0.153-0.231-0.053-0.42,0.226-0.42h0.023c0.277,0,0.615,0.195,0.754,0.436l0.034,0.061
			c0.139,0.24,0.362,0.238,0.498-0.002l0.031-0.055c0.136-0.242,0.469-0.438,0.744-0.438c0.276,0,0.373,0.187,0.218,0.416
			l-0.492,0.73c-0.154,0.231-0.157,0.604-0.002,0.835l0.537,0.804c0.154,0.231,0.055,0.418-0.224,0.418h-0.039
			c-0.278,0-0.615-0.194-0.753-0.436l-0.053-0.094c-0.139-0.24-0.362-0.242-0.5-0.001l-0.057,0.095
			c-0.138,0.241-0.477,0.436-0.754,0.436h-0.014c-0.277,0-0.377-0.187-0.222-0.416l0.532-0.793
			C46.961,45.732,46.962,45.357,46.81,45.127z M47.135,26.956c0.024-0.134,0.177,0.194,0.287,0.338
			c0.108,0.144,0.066,0.337-0.178,0.388C47,27.731,47.13,26.982,47.135,26.956z M43.455,45.127l-0.493-0.742
			c-0.153-0.231-0.054-0.42,0.225-0.42h0.022c0.278,0,0.615,0.195,0.755,0.436l0.035,0.061c0.138,0.24,0.36,0.238,0.498-0.002
			l0.029-0.055c0.137-0.242,0.47-0.438,0.746-0.438s0.372,0.187,0.218,0.416l-0.493,0.73c-0.155,0.231-0.156,0.604-0.002,0.835
			l0.537,0.804c0.155,0.231,0.056,0.418-0.224,0.418h-0.04c-0.277,0-0.615-0.194-0.753-0.436l-0.054-0.094
			c-0.136-0.24-0.361-0.242-0.5-0.001l-0.055,0.095c-0.139,0.241-0.479,0.436-0.755,0.436h-0.014c-0.277,0-0.377-0.187-0.222-0.416
			l0.533-0.793C43.608,45.732,43.609,45.357,43.455,45.127z M40.1,45.127l-0.492-0.742c-0.154-0.231-0.053-0.42,0.225-0.42h0.023
			c0.277,0,0.614,0.195,0.753,0.436l0.034,0.061c0.139,0.24,0.362,0.238,0.498-0.002l0.031-0.055
			c0.136-0.242,0.47-0.438,0.745-0.438c0.276,0,0.374,0.187,0.218,0.416l-0.493,0.73c-0.154,0.231-0.155,0.604-0.002,0.835
			l0.538,0.804c0.153,0.231,0.054,0.418-0.225,0.418h-0.04c-0.277,0-0.615-0.194-0.752-0.436l-0.054-0.094
			c-0.137-0.24-0.362-0.242-0.501-0.001l-0.056,0.095c-0.138,0.241-0.476,0.436-0.754,0.436h-0.013
			c-0.276,0-0.378-0.187-0.222-0.416l0.533-0.793C40.252,45.732,40.252,45.357,40.1,45.127z M41.015,32.652
			c-0.066-0.136-0.101-0.146-0.101-0.304s-0.021-0.179,0.034-0.258c0.056-0.08,0.213-0.135,0.258-0.204
			c0.045-0.067,0.214-0.043,0.269-0.134c0.057-0.09,0.102-0.124,0.169-0.213s0.101-0.09,0.101-0.157
			c0-0.068,0.034-0.237,0.034-0.237s-0.023-0.089,0.122,0.079c0.146,0.169,0.146,0.112,0.168,0.292c0.023,0.179,0.034,0.314,0,0.337
			s-0.156-0.146-0.145-0.023c0.011,0.125,0.056,0.157,0.056,0.157s0.079,0.09-0.032,0.09c-0.113,0-0.103,0.078-0.08,0.213
			l-0.012,0.033l-0.449,1.326c0,0-0.101,0.101-0.179,0.101c-0.079,0-0.18,0.135-0.314,0c-0.134-0.135-0.157-0.113-0.134-0.214
			c0.021-0.101,0.066-0.179,0.021-0.225c-0.045-0.045-0.135-0.056-0.079-0.191c0.056-0.134,0.079-0.1,0.157-0.246
			C40.959,32.729,41.083,32.786,41.015,32.652z M42.229,26.563c-0.078,0.101-0.101,0.584-0.235,0.82
			c-0.136,0.236-0.157,0.348-0.202,0.45c-0.045,0.101-0.157,0.258-0.214,0.292c-0.056,0.035-0.213,0.236-0.236,0.281
			c-0.022,0.045-0.135,0.057-0.169,0.089c-0.034,0.034-0.201,0.146-0.236,0.213c-0.034,0.066-0.179,0.247-0.201,0.281
			c-0.023,0.033-0.146,0.146-0.146,0.146s-0.003,0.005-0.008,0.013c-0.027,0.04-0.108,0.16-0.183,0.177
			c-0.09,0.022,0,0.181-0.068,0.226c-0.065,0.044-0.077,0.089-0.077,0.213c0,0.003,0,0.005,0,0.008
			c-0.006,0.11-0.111,0.019-0.101,0.172c0.011,0.157,0.034,0.224,0.078,0.292c0.045,0.068,0.013,0.136,0.045,0.293
			c0.019,0.087,0.062,0.208,0.096,0.299c0.028,0.074,0.051,0.128,0.051,0.128s-0.022,0.045-0.022,0.292s-0.034,0.247,0,0.371
			c0.032,0.124,0.022,0.135-0.057,0.249c-0.08,0.112-0.19,0.179-0.246,0.225c-0.058,0.045-0.247,0.1-0.292,0.145
			c-0.046,0.044-0.068,0.124-0.136,0.192c-0.067,0.066-0.135,0.124-0.214,0.169c-0.077,0.044-0.258,0.077-0.124,0.213
			c0.137,0.135,0.158,0.281,0.137,0.505c-0.023,0.226-0.079,0.325-0.158,0.325c0,0-0.448,0.114-0.358,0.315
			c0.01,0.026,0.021,0.049,0.029,0.069c0.062,0.146,0.062,0.192-0.076,0.29c-0.157,0.113-0.314,0.18-0.359,0.404
			c-0.045,0.226-0.09,0.293-0.359,0.382c-0.271,0.09-0.226,0.293-0.359,0.293c-0.135,0-0.336,0.112-0.428,0.112
			c-0.089,0-0.201-0.112-0.381,0c-0.18,0.111-0.292,0.201-0.449-0.045c-0.157-0.247,0.045-0.405-0.112-0.608
			c-0.158-0.201-0.158-0.382-0.18-0.449c-0.004-0.011-0.013-0.026-0.027-0.047c-0.069-0.101-0.242-0.301-0.242-0.47
			c0-0.202-0.112-0.674-0.112-0.674s-0.451-0.74-0.428-0.966c0.003-0.031,0.009-0.069,0.016-0.109
			c0.044-0.253,0.16-0.66,0.276-0.834c0.135-0.203,0.112-0.472,0.045-0.517s-0.112-0.315-0.045-0.315s-0.045-0.023-0.112-0.203
			c-0.034-0.086-0.04-0.194-0.059-0.301c-0.013-0.062-0.028-0.126-0.057-0.184c-0.022-0.048-0.054-0.093-0.098-0.132
			c-0.031-0.027-0.064-0.059-0.098-0.093c-0.177-0.177-0.37-0.429-0.353-0.57c0.022-0.169,0.102-0.225,0.102-0.292
			c0-0.022,0.005-0.051,0.009-0.082c0.012-0.062,0.032-0.131,0.047-0.177c0.007-0.02,0.018-0.038,0.028-0.058
			c0.027-0.049,0.051-0.105-0.005-0.201c-0.079-0.135-0.136-0.179-0.136-0.179l-0.075-0.11l-0.002-0.003
			c0,0-0.159,0.066-0.226,0.066c-0.067,0-0.146,0.046-0.226,0.046c-0.079,0-0.124,0.011-0.112-0.09c0.012-0.1,0.112-0.1-0.012-0.19
			c-0.123-0.09-0.112-0.134-0.202-0.134c-0.085,0-0.161-0.01-0.227-0.001c-0.003,0-0.005,0-0.009,0.001
			c-0.044,0.007-0.119,0.02-0.163,0.027c-0.022,0.003-0.039,0.006-0.039,0.006s0,0.067-0.067,0.067s-0.078,0.057-0.134,0.057
			c-0.057,0-0.123,0.044-0.158,0.067c-0.033,0.022-0.124,0.045-0.124,0.045l-0.112,0.045c0,0-0.011,0.005-0.029,0.009
			c-0.026,0.007-0.066,0.01-0.105-0.009c-0.068-0.035-0.012-0.068-0.112-0.068c-0.102,0-0.136,0-0.259,0
			c-0.124,0-0.169,0.056-0.202,0.056s-0.146,0.066-0.146,0.066l-0.096,0.018l-0.027,0.004c0,0-0.033,0.045-0.123-0.033
			c-0.09-0.079-0.213-0.157-0.213-0.157s-0.203-0.168-0.247-0.213c-0.034-0.035-0.043-0.068-0.079-0.103
			c-0.012-0.01-0.026-0.021-0.044-0.033c-0.079-0.045-0.102-0.057-0.135-0.09s-0.113-0.089-0.113-0.124c0-0.035,0-0.134,0-0.134
			s-0.005-0.019-0.014-0.043c-0.017-0.042-0.045-0.102-0.086-0.136c-0.067-0.056-0.057-0.079-0.101-0.113
			c-0.045-0.033-0.09-0.124-0.09-0.124s-0.008-0.003-0.02-0.008c-0.034-0.017-0.096-0.06-0.071-0.126c0,0-0.101,0.035-0.146-0.034
			c-0.022-0.033-0.034-0.049-0.04-0.058c-0.005-0.008-0.005-0.008-0.005-0.008s-0.089-0.057-0.079-0.136
			c0.012-0.078-0.011,0.023,0.012-0.078s0.023-0.034,0.023-0.101c0-0.066,0-0.079,0-0.135c0-0.057,0.022-0.124,0.022-0.124
			s0.079-0.157,0.101-0.191c0.016-0.023,0.021-0.03,0.022-0.073c0.001-0.02,0.001-0.045,0.001-0.084
			c0-0.124,0.023-0.157,0.023-0.258s-0.012-0.056-0.012-0.157c0-0.1,0.056-0.224,0-0.247c-0.057-0.021-0.045-0.01-0.068-0.066
			c-0.023-0.057-0.057-0.057-0.045-0.136c0.011-0.078,0-0.033,0.045-0.123s0.157-0.224,0.157-0.224s0.023-0.112,0.067-0.168
			c0.045-0.056,0.057-0.078,0.079-0.124c0.023-0.045,0.023-0.225,0.202-0.326c0.177-0.1,0.125-0.231,0.156-0.247l0,0
			c0.035-0.011,0.124-0.034,0.158-0.079c0.033-0.045,0.157-0.113,0.157-0.113s0.168,0.012,0.168-0.068
			c0-0.078,0.09-0.157,0.09-0.157l0.011-0.089c0,0-0.022-0.08-0.022-0.146c0-0.067,0.045-0.089,0.057-0.147
			c0.011-0.056,0.067-0.111,0.112-0.19c0.045-0.078,0.101-0.067,0.169-0.101c0.067-0.033,0.123-0.033,0.146-0.078
			c0.022-0.045,0.112-0.045,0.112-0.102s0.044-0.112,0.056-0.157c0.011-0.044,0.023-0.101,0.023-0.101s-0.013-0.057,0.067-0.045
			c0.079,0.01,0.124,0.09,0.124,0.09s0.066,0.044,0.111,0.044c0.046,0,0.102,0,0.146,0s0.078-0.012,0.112,0s0.034,0.023,0.091,0.035
			c0.015,0.003,0.027,0.004,0.037,0.003c0.025-0.001,0.039-0.016,0.063-0.048c0.033-0.045-0.057,0,0.033-0.045
			c0.091-0.045,0.136-0.056,0.18-0.056c0.045,0,0.058-0.035,0.103-0.067c0.044-0.034,0.179-0.057,0.179-0.057
			s0.079-0.022,0.113-0.022c0.033,0,0.044,0.011,0.258-0.023c0.214-0.033,0.314-0.056,0.314-0.056h0.191
			c0,0,0.111-0.011,0.146-0.011c0.033,0,0.146-0.012,0.146-0.012l0.146-0.033c0,0,0.134,0.022,0.134,0.079
			c0,0.056,0.101-0.012,0.101-0.012s-0.101,0.112-0.078,0.146c0.023,0.034,0.078,0.124,0.045,0.18
			c-0.032,0.057-0.09,0.09-0.101,0.157c-0.012,0.068,0.033,0.124,0.033,0.124s0.022,0.067,0.091,0.067
			c0.029,0,0.054,0.023,0.076,0.049c0.026,0.031,0.05,0.063,0.081,0.063c0.057,0,0.125,0.023,0.202,0.023
			c0.078,0,0.258,0.023,0.258,0.023s0.079,0.023,0.09,0.135c0.012,0.112,0.034,0.112,0.079,0.112s0.201-0.034,0.259,0.023
			c0.057,0.057,0.012,0.044,0.078,0.1c0.068,0.056,0.202,0.09,0.259,0.045c0.056-0.045,0.101,0.011,0.101-0.068
			c0-0.078-0.057-0.213,0-0.258c0.057-0.046,0.089-0.146,0.156-0.146c0.069,0,0.169-0.067,0.237,0.011s0.124,0.113,0.124,0.113
			s0.146,0.078,0.214,0.078c0.019,0,0.036,0.005,0.052,0.012c0.036,0.016,0.062,0.044,0.096,0.044c0.044,0,0.213-0.012,0.269,0
			c0.057,0.011,0.247,0.19,0.359,0.146c0.112-0.044,0.122-0.146,0.27-0.146c0.146,0,0.125,0.068,0.214,0.068
			c0.09,0,0.068,0.022,0.158,0.022c0.089,0,0.111,0.01,0.146,0.01c0.023,0,0.074,0.174,0.099,0.322
			c0.01,0.064,0.016,0.124,0.014,0.161c-0.012,0.124,0.09,0.28-0.057,0.158c-0.146-0.123-0.122-0.111-0.157-0.169
			c-0.033-0.056-0.102-0.19-0.124-0.225c-0.023-0.034,0.033,0.067,0.033,0.124s0.179,0.203,0.179,0.292s-0.032,0.067,0.068,0.19
			c0.101,0.124,0.18,0.259,0.214,0.438c0.015,0.082,0.04,0.135,0.06,0.173c0.022,0.044,0.037,0.066,0.02,0.085
			c-0.033,0.033,0.045-0.033,0.09,0.091c0.044,0.123,0.168,0.382,0.168,0.416s-0.011,0.168,0.012,0.213c0.022,0.045,0,0,0.113,0.124
			c0.067,0.075,0.11,0.079,0.142,0.104c0.02,0.016,0.036,0.041,0.049,0.098c0.035,0.146-0.056,0.022,0.091,0.225
			c0.145,0.202,0.045,0.247,0.156,0.27c0.112,0.021,0.226,0.135,0.304,0.225c0.079,0.09,0.079,0.135,0.135,0.179
			c0.057,0.044,0.102,0.089,0.102,0.157s0,0.124,0,0.158c0,0.006,0.002,0.012,0.002,0.02c0.008,0.032,0.028,0.071,0.065,0.071
			c0.045,0,0.045,0.089,0.113,0.089c0.067,0,0.146-0.011,0.256-0.021c0.113-0.012,0.068-0.091,0.192-0.091
			c0.123,0,0.09-0.034,0.247-0.034s0.247,0.012,0.304-0.033c0.056-0.045,0.156-0.112,0.156-0.112S42.308,26.461,42.229,26.563z
			 M33.497,45.127l-0.493-0.742c-0.152-0.231-0.053-0.42,0.226-0.42h0.022c0.277,0,0.614,0.195,0.755,0.436l0.035,0.061
			c0.138,0.24,0.359,0.238,0.497-0.002l0.029-0.055c0.137-0.242,0.47-0.438,0.747-0.438c0.275,0,0.372,0.187,0.218,0.416
			l-0.492,0.73c-0.156,0.231-0.157,0.604-0.003,0.835l0.537,0.804c0.155,0.231,0.055,0.418-0.224,0.418h-0.04
			c-0.277,0-0.615-0.194-0.751-0.436l-0.054-0.094c-0.138-0.24-0.362-0.242-0.502-0.001l-0.055,0.095
			c-0.139,0.241-0.477,0.436-0.754,0.436h-0.014c-0.277,0-0.377-0.187-0.222-0.416l0.533-0.793
			C33.649,45.732,33.651,45.357,33.497,45.127z M30.143,45.127l-0.493-0.742c-0.153-0.231-0.053-0.42,0.225-0.42h0.023
			c0.278,0,0.615,0.195,0.754,0.436l0.034,0.061c0.139,0.24,0.362,0.238,0.498-0.002l0.031-0.055
			c0.136-0.242,0.469-0.438,0.746-0.438s0.373,0.187,0.218,0.416l-0.493,0.73c-0.155,0.231-0.156,0.604-0.002,0.835l0.538,0.804
			c0.154,0.231,0.054,0.418-0.224,0.418h-0.04c-0.278,0-0.615-0.194-0.752-0.436l-0.053-0.094c-0.138-0.24-0.363-0.242-0.501-0.001
			l-0.056,0.095c-0.138,0.241-0.477,0.436-0.754,0.436h-0.013c-0.277,0-0.377-0.187-0.222-0.416l0.534-0.793
			C30.294,45.732,30.295,45.357,30.143,45.127z M30.799,16.509c0,0,0.169-0.092,0.194-0.092s0.161-0.05,0.042-0.05
			c-0.118,0-0.227,0.059-0.261,0.008c-0.033-0.05,0.261-0.186,0.32-0.134c0.06,0.05,0.017,0.109,0.084,0.109
			c0.067,0,0.144-0.008,0.202-0.042c0.06-0.034,0.102-0.034,0.194-0.034c0.093,0,0.084,0.034,0.194-0.008
			c0.109-0.042,0.328,0.042,0.346,0.168c0,0-0.135,0.161-0.278,0.178c-0.143,0.016-0.336,0.076-0.345,0.109
			c-0.008,0.033-0.092,0.033-0.168,0.033s-0.193-0.042-0.228-0.076c-0.034-0.033-0.202-0.025-0.202-0.025l0.11-0.092L30.799,16.509z
			 M35.02,20.856c0,0,0.059-0.034,0.075-0.008c0.018,0.025,0.06,0.076,0.06,0.076c0.018,0.025-0.033,0.286-0.033,0.286l-0.075,0.017
			l-0.034,0.067h-0.084v-0.27l-0.043-0.092l0.067-0.042L35.02,20.856z M34.96,20.594c0.017-0.059,0.151-0.017,0.151,0.06
			c0,0.075-0.017,0.143-0.103,0.143C34.927,20.798,34.96,20.594,34.96,20.594z M32.399,18.557c-0.075,0-0.117,0.051-0.1-0.085
			c0.017-0.134,0.041-0.184,0.135-0.126c0.092,0.06,0.143,0.026,0.143,0.026s-0.049-0.152,0.085-0.152
			c0.135,0,0.161-0.025,0.21,0.008c0.051,0.035,0.244,0.126,0.043,0.126c-0.202,0-0.152,0.017-0.067,0.092
			c0.084,0.075,0.019,0.034,0.019,0.034c-0.035,0.034,0.057,0.253-0.086,0.279c-0.144,0.025-0.136,0.025-0.236,0.067
			c-0.102,0.042-0.102,0.084-0.202,0.05c-0.101-0.033-0.126-0.033-0.126-0.092c0-0.059,0.042-0.135,0.109-0.152
			C32.391,18.615,32.475,18.557,32.399,18.557z M36.562,14.36c0.101,0.102,0.21,0.102,0.269,0.102c0.06,0,0.026,0.051-0.109,0.051
			c-0.135,0-0.27-0.051-0.27-0.051c-0.059-0.025-0.024-0.143-0.168-0.126c-0.145,0.017-0.103-0.017-0.202,0.126
			c-0.102,0.143-0.042,0.193-0.16,0.143c-0.118-0.05-0.094,0.068-0.271-0.05c-0.178-0.118-0.169-0.101,0.093-0.152
			c0,0,0.102-0.093,0.009-0.093c-0.094,0-0.143,0.093-0.244,0.093c-0.101,0-0.236,0-0.236-0.102c0-0.101,0.008-0.176,0.126-0.176
			s0.151,0,0.387,0c0.237,0,0.287-0.042,0.447-0.042c0.161,0,0.27,0,0.396,0c0.126,0,0.388,0,0.388,0s0.075,0.067-0.085,0.118
			c-0.159,0.051-0.187,0.059-0.303,0.059c-0.117,0-0.304-0.016-0.345-0.033c-0.042-0.017-0.135-0.017-0.135-0.017
			S36.46,14.259,36.562,14.36z M40.959,15.489c0,0-0.27,0.051-0.295,0.051s-0.126-0.051-0.202-0.109
			c-0.075-0.059-0.328,0.035-0.328-0.034c0-0.066,0.067-0.076,0.135-0.109c0.067-0.034,0.05-0.051,0.067-0.136
			c0.017-0.084,0.026-0.134,0.051-0.134c0.025,0-0.033-0.051,0.059-0.06c0.093-0.008,0.043-0.109,0.109-0.109
			c0.067,0,0.169-0.051,0.218-0.051c0.052,0,0.035-0.092,0.127-0.092c0.093,0,0.32-0.009,0.371-0.009s0.043-0.042,0.101-0.042
			c0.059,0,0.152-0.051,0.202-0.051c0.051,0,0.068-0.026,0.151,0.059c0,0-0.834,0.203-1.053,0.463
			C40.454,15.388,40.841,15.464,40.959,15.489z M43.883,14.108c0.009-0.043,0.034-0.135,0.177-0.135
			c0.144,0,0.068-0.084,0.237,0.017c0.169,0.101,0.101,0.093,0.244,0.101c0.143,0.009,0.185-0.008,0.26,0.051
			c0.077,0.059,0.127,0.202,0.06,0.194c-0.025-0.003-0.177,0-0.455-0.067c-0.277-0.068-0.261-0.084-0.354-0.093
			C43.959,14.167,43.875,14.149,43.883,14.108z M45.004,14.217c0,0,0.126,0.06,0.548,0.068c0.421,0.008,0.067,0.093,0.009,0.093
			c-0.06,0-0.193,0-0.296,0.016c-0.102,0.018-0.185,0-0.185,0S44.995,14.25,45.004,14.217z M50.161,14.681
			c0.16,0,0.362,0.025,0.387,0.025c0.026,0,0.194,0.042,0.077,0.126c0,0-0.363,0.058-0.472,0.058c-0.11,0-0.287-0.017-0.413-0.093
			c-0.128-0.076,0.059-0.22,0.176-0.126c0.119,0.093,0.135,0.076,0.169,0.067C50.119,14.731,50,14.681,50.161,14.681z
			 M55.805,15.346c0.707,0.093,0.269,0.152-0.052,0.152C55.434,15.498,55.805,15.346,55.805,15.346z M55.67,22.238
			c0.026,0.135-0.085,0.06-0.143,0.025c-0.061-0.033-0.11-0.05-0.118,0c-0.008,0.051-0.051,0.135-0.102,0.067
			c-0.051-0.067-0.075,0.042-0.092,0.102c-0.018,0.058-0.043,0.05-0.118-0.035c-0.076-0.083-0.008,0.084-0.008,0.186
			c0,0.101-0.043,0.135-0.126,0.21c-0.086,0.076-0.11,0-0.11-0.135c0-0.134-0.033-0.168-0.126-0.194
			c-0.093-0.025-0.118-0.109-0.059-0.21c0.059-0.101,0.209-0.32,0.396-0.337c0.185-0.017,0.193-0.033,0.312,0.017
			c0.117,0.05,0.084,0.042,0.075-0.135c-0.009-0.177,0.126-0.143,0.203-0.152c0.075-0.008,0.083-0.075,0.118-0.244
			c0.033-0.168-0.118-0.393-0.135-0.413c-0.109-0.126,0.067-0.21,0.193-0.109c0.126,0.102,0.287,0.245,0.287,0.387
			c0,0.143-0.084,0.118-0.084,0.143s0.143,0.144,0.16,0.294c0.017,0.152,0.042,0.009,0.051,0.194c0.009,0.186,0,0.084-0.108,0.051
			c-0.11-0.035-0.094,0.05-0.203,0.109c-0.108,0.059-0.06,0.093-0.168,0.017C55.654,22.001,55.645,22.104,55.67,22.238z
			 M54.988,27.597c0.084,0.109-0.018,0.092-0.117,0.092c-0.102,0-0.194-0.126-0.178-0.311c0.017-0.186-0.085-0.05-0.085-0.05h-0.201
			c0,0-0.102,0.144-0.102,0.118c0-0.025,0.076-0.168,0.076-0.202c0-0.033,0.108-0.042,0.108-0.042s0.061-0.066,0.094-0.076
			c0.032-0.008,0.024,0.06,0.051,0.093c0.024,0.033,0.079,0.01,0.067-0.017c-0.017-0.033,0.033-0.143,0.137-0.101
			c0.101,0.042,0.058,0.017,0.058-0.092s0.084-0.06,0.135,0.067c0.05,0.126,0,0.084,0.06,0.278c0.059,0.194-0.068,0.119-0.144,0.051
			C54.871,27.336,54.903,27.487,54.988,27.597z M54.112,28.969c0.098,0.04,0.079,0.076,0.059,0.093
			c0.069-0.034,0.43-0.109,0.43-0.109s-0.126,0.118-0.193,0.151c-0.067,0.034-0.051,0.093-0.051,0.126
			c0,0.034,0.059,0.236,0.092,0.311c0.034,0.076,0.117,0.11,0.117,0.11s-0.092,0.016-0.117,0.041
			c-0.025,0.025-0.084,0.084-0.109,0.109c-0.025,0.025-0.093-0.025-0.093-0.101c0-0.076-0.042-0.076-0.059-0.134
			c-0.018-0.06-0.018-0.118,0-0.144c0.017-0.025,0.049-0.076,0.008-0.076c-0.042,0-0.145-0.059-0.134,0.059
			c0.004,0.067-0.009,0.54-0.009,0.54l-0.144-0.026V29.75l0.01-0.236l-0.126-0.025l0.008-0.16c0,0,0.041,0.076,0.067-0.109
			c0.025-0.186,0.118-0.379,0.118-0.379s0.041-0.278,0.235-0.262c0.194,0.017,0.186,0.035,0.371,0.035s0.262-0.068,0.304-0.118
			c0.043-0.051,0.084,0.034-0.018,0.143c-0.101,0.109,0.051,0.126-0.177,0.126c-0.227,0-0.404,0-0.488,0
			c-0.085,0-0.169-0.033-0.143,0.051C54.095,28.903,53.943,28.903,54.112,28.969z M53.631,28.979
			c-0.084,0.093-0.152,0.034-0.186,0.135c-0.034,0.101-0.034,0.203-0.034,0.253c0,0.05-0.076,0.261-0.076,0.261v-0.119
			c0,0-0.118,0.085-0.202,0.085s-0.051-0.085-0.051-0.085s-0.051,0.034-0.11,0c-0.058-0.033-0.134-0.084-0.134-0.084
			s0,0.068-0.06,0.068c-0.058,0-0.22,0.068-0.193,0.025c0.024-0.042,0.033-0.159,0-0.134s-0.026,0.025-0.126,0.025
			c-0.102,0-0.145,0.035-0.145,0c0-0.033-0.016-0.328-0.016-0.328s-0.052,0.025-0.118-0.144c-0.067-0.168-0.051-0.235-0.043-0.319
			c0.006-0.05,0.031-0.101,0.051-0.133c0.015-0.021,0.025-0.037,0.025-0.037s0.058,0.06,0.151,0.068
			c0.094,0.009,0.135,0.084,0.145,0.009c0.008-0.077,0.017-0.153,0.024-0.186c0.009-0.033,0.118-0.076,0.187-0.076
			s0.033,0.042,0.134-0.068s0.093-0.152,0.093-0.186s0.102-0.109,0.169-0.101c0.067,0.009,0.05,0,0.101-0.051
			c0.05-0.05,0.01-0.1,0.076-0.169c0.067-0.067,0.067-0.143,0.067-0.143s0.212-0.092,0.228,0.009c0.017,0.1,0.101,0.151,0.101,0.151
			c0.109,0.017,0.194,0.059,0.194,0.059s0.009,0.092-0.042,0.092c-0.049,0-0.135,0-0.135,0l0.075,0.076c0,0-0.066,0.034-0.118,0.034
			c-0.034,0-0.089,0.008-0.12,0.013c-0.014,0.002-0.022,0.004-0.022,0.004s0.025,0.059,0.076,0.168s-0.035,0.152,0.051,0.161
			c0.084,0.008,0.084,0.177,0.084,0.177s-0.05,0.075,0.05,0.092c0.102,0.017,0.085,0.068,0.085,0.068s-0.228-0.026-0.245,0.084
			C53.606,28.843,53.715,28.885,53.631,28.979z M52.739,30.327L53,30.353c0,0,0.169,0.058,0.237,0.109
			c0.067,0.051-0.068,0.059-0.11,0.051c-0.041-0.008-0.126,0.008-0.219-0.008c-0.092-0.017-0.177,0-0.336-0.068
			c-0.161-0.067-0.253-0.017-0.363-0.084c-0.109-0.068-0.176-0.051-0.278-0.077c-0.1-0.025-0.151-0.025-0.285-0.109
			c-0.136-0.084-0.085-0.21,0.144-0.194c0.228,0.018,0.142,0.084,0.286,0.177c0.144,0.093,0.328-0.034,0.328-0.034
			s0.109,0,0.211,0.026c0.1,0.025,0.076-0.017,0.227-0.017c0.151,0,0.134,0.084,0.134,0.084s-0.151,0.034-0.201,0.034
			C52.722,30.241,52.739,30.327,52.739,30.327z M52.03,25.254c-0.134,0.092-0.228,0.051-0.252-0.126
			c-0.024-0.177,0.279-0.202,0.279-0.202l0.134,0.084C52.191,25.01,52.165,25.161,52.03,25.254z M54.127,25.944
			c0.051,0.068,0.025,0.06,0.06,0.135c0.032,0.076,0.059,0,0.059-0.025s0.101-0.034,0.126-0.008
			c0.024,0.025,0.085,0.093,0.102,0.118s0.117,0.161,0.117,0.161l-0.058,0.067c0,0-0.034-0.025-0.043-0.084
			c-0.008-0.06-0.051-0.042-0.118-0.076c-0.066-0.035-0.084-0.017-0.084-0.017s-0.076-0.06-0.101-0.068
			c-0.025-0.008-0.06,0.008-0.06,0.008h-0.109c0,0,0.017-0.076,0.017-0.135c0-0.058-0.033-0.068-0.067-0.068
			c-0.035,0-0.077,0-0.102-0.042c-0.024-0.042-0.118-0.237-0.118-0.237h0.143c0,0,0.009-0.067-0.033-0.084
			c-0.041-0.016-0.024-0.27-0.024-0.27s0.009-0.051,0.009-0.143s0.051,0.042,0.108,0.05c0.059,0.008,0.101-0.034,0.135-0.034
			s0.034,0.126,0.034,0.177c0,0.052,0.051,0.084,0.076,0.144c0.024,0.06,0.06,0.093-0.025,0.143
			c-0.084,0.05-0.033,0.059-0.084,0.059c-0.05,0-0.024,0.067-0.033,0.118C54.044,25.886,54.078,25.878,54.127,25.944z M53.85,24.303
			c0,0.034-0.126,0.244-0.126,0.244s-0.177-0.051-0.169-0.227c0.008-0.177,0.219-0.556,0.286-0.311
			C53.853,24.047,53.85,24.269,53.85,24.303z M55.451,19.752c0,0,0.126,0.068-0.009,0.068c-0.134,0-0.134,0-0.134,0
			s0.068,0.227,0.017,0.152c-0.05-0.076-0.092-0.093-0.151-0.169c-0.059-0.076,0-0.186-0.118-0.287
			c-0.116-0.101-0.142-0.125-0.201-0.235c-0.059-0.109-0.059-0.077-0.135-0.211c-0.076-0.135-0.01-0.126-0.109-0.177
			c-0.102-0.05-0.135-0.109-0.22-0.253c-0.083-0.143-0.024-0.151-0.024-0.151s0.024-0.118,0.1,0c0.075,0.119,0.118,0.076,0.186,0.21
			c0.068,0.135,0.068,0.06,0.177,0.21c0.11,0.152,0.177,0.135,0.237,0.194c0.058,0.058,0.27,0.253,0.276,0.287
			c0.009,0.034-0.033,0.025-0.033,0.025c-0.024-0.017-0.161-0.161-0.21-0.118C55.047,19.339,55.208,19.627,55.451,19.752z
			 M55.62,20.729c0,0-0.21,0.05-0.202-0.101c0.009-0.152,0-0.194,0.06-0.194c0.059,0,0.193,0.118,0.059-0.067
			c-0.134-0.186-0.094-0.143-0.152-0.236c-0.06-0.092,0.008-0.119,0.008-0.119s0.279,0.236,0.456,0.253
			c0.177,0.017,0.234,0.017,0.27,0.084c0.033,0.068,0.159,0.126,0.06,0.126c-0.102,0-0.16-0.059-0.16,0.058
			c0,0.119,0.008,0.22-0.11,0.152c-0.118-0.067-0.093-0.126-0.219-0.075c-0.126,0.051-0.185-0.068-0.177-0.025
			C55.518,20.629,55.62,20.729,55.62,20.729z M50.164,45.127l-0.493-0.742c-0.152-0.231-0.053-0.42,0.226-0.42h0.022
			c0.276,0,0.614,0.195,0.755,0.436l0.034,0.061c0.139,0.24,0.36,0.238,0.498-0.002l0.029-0.055c0.137-0.242,0.47-0.438,0.746-0.438
			s0.373,0.187,0.218,0.416l-0.492,0.73c-0.155,0.231-0.156,0.604-0.002,0.835l0.537,0.804c0.155,0.231,0.054,0.418-0.224,0.418
			h-0.041c-0.276,0-0.614-0.194-0.75-0.436l-0.055-0.094c-0.137-0.24-0.361-0.242-0.501-0.001l-0.055,0.095
			c-0.139,0.241-0.477,0.436-0.754,0.436h-0.014c-0.277,0-0.377-0.187-0.222-0.416l0.533-0.793
			C50.315,45.732,50.317,45.357,50.164,45.127z M58.719,30.781c-0.127-0.059-0.235-0.277-0.235-0.277s0.043-0.026-0.051-0.084
			c-0.094-0.06-0.035-0.084-0.177-0.093c-0.144-0.008-0.144-0.033-0.194,0.018c-0.053,0.05-0.035,0.084-0.144,0.084
			c-0.11,0-0.153,0.017-0.153,0.017l0.202,0.06c0,0,0.051,0.101-0.043,0.101c-0.092,0-0.125,0-0.167,0
			c-0.029,0-0.143-0.008-0.207-0.013c-0.026-0.002-0.046-0.004-0.046-0.004s-0.117-0.21-0.228-0.168
			c-0.109,0.042-0.286,0.068-0.286,0.068s0.024-0.253,0.16-0.219c0,0,0.051-0.245-0.059-0.338c-0.11-0.092-0.255-0.193-0.371-0.193
			c-0.118,0-0.203-0.076-0.203-0.101s-0.083-0.034-0.117-0.059c-0.033-0.025-0.059-0.101-0.059-0.101s-0.025,0.159-0.076,0.159
			s-0.083-0.066-0.083-0.109s-0.009-0.135-0.068-0.135c-0.061,0,0.042-0.034,0.076-0.051c0.032-0.017,0.177-0.008,0.177-0.008
			v-0.075l-0.271-0.009l-0.043-0.11c0,0-0.159,0.026-0.193-0.075l0.06-0.076c0,0,0.151-0.093,0.209-0.093
			c0.06,0,0.127,0.042,0.169,0.042c0.043,0,0.128,0.042,0.128,0.109c0,0.067,0.009,0.167,0.009,0.202s0.032,0.068,0.032,0.093
			s0.076-0.058,0.076,0.025c0,0.084,0.025,0.118,0.06,0.118c0.033,0,0.16-0.067,0.178-0.143c0.017-0.075,0.032-0.118,0.117-0.118
			c0.084,0,0.108-0.177,0.235-0.092c0.128,0.084,0.16,0.135,0.254,0.142c0.092,0.008,0.134-0.017,0.193,0.025
			c0.009,0.008,0.024,0.017,0.041,0.027c0.087,0.055,0.256,0.144,0.32,0.152c0.076,0.008,0.177,0.033,0.277,0.092
			c0.102,0.058,0.152,0.092,0.152,0.194c0,0.101,0,0.118,0.06,0.118c0.059,0,0.136,0.05,0.136,0.076
			c0,0.025,0.186,0.025,0.186,0.109s-0.169,0.05-0.145,0.118c0.025,0.066,0.177,0.185,0.22,0.26
			c0.043,0.076-0.043,0.068,0.059,0.144c0.101,0.076,0.186,0.144,0.21,0.168c0.026,0.025,0.237,0.186,0.034,0.144
			C58.931,30.857,58.846,30.84,58.719,30.781z M23.433,45.127l-0.493-0.742c-0.153-0.231-0.053-0.42,0.225-0.42h0.023
			c0.278,0,0.616,0.195,0.754,0.436l0.035,0.061c0.138,0.24,0.361,0.238,0.498-0.002l0.03-0.055c0.137-0.242,0.47-0.438,0.746-0.438
			s0.373,0.187,0.218,0.416l-0.493,0.73c-0.155,0.231-0.156,0.604-0.002,0.835l0.538,0.804c0.154,0.231,0.054,0.418-0.225,0.418
			h-0.04c-0.277,0-0.615-0.194-0.752-0.436l-0.053-0.094c-0.137-0.24-0.362-0.242-0.501-0.001l-0.055,0.095
			c-0.139,0.241-0.477,0.436-0.754,0.436h-0.014c-0.276,0-0.376-0.187-0.222-0.416l0.534-0.793
			C23.585,45.732,23.586,45.357,23.433,45.127z M24.984,38.123l0.008,0.003l0.004,0.004l-0.003,0.01c0,0-0.008,0.002-0.009,0.002
			c-0.002,0-0.016,0.002-0.016,0.002l-0.009-0.002l-0.007-0.011c0,0,0-0.006,0.002-0.006c0.001,0,0.004-0.002,0.005-0.003
			c0.001-0.002,0.003-0.014,0.003-0.014l0.013,0.002l0.006,0.003v0.009L24.984,38.123z M25.068,38.084l-0.016-0.012l-0.017-0.012
			l-0.006-0.017c0,0-0.004-0.017-0.002-0.017c0.002,0,0.02,0.002,0.02,0.002l0.002-0.003c0.003,0-0.005,0.016,0.021,0.022
			c0.025,0.008,0.021,0,0.023-0.005c0.002-0.006,0.01-0.01,0.009-0.016s0.005-0.012,0.007-0.012c0.003,0,0.014-0.002,0.019,0
			c0.004,0,0.013,0.008,0.014,0.011c0,0.001,0.002,0.01,0.007,0.012c0.005,0.002,0.019,0.003,0.019,0.003s0.009-0.01,0.008-0.013
			c-0.002-0.005,0.003-0.007,0.005-0.007c0.003,0,0.006-0.006,0.008-0.008c0.002-0.003,0.021-0.003,0.021-0.003
			s-0.008,0.015,0.001,0.017c0.008,0.002,0.007,0.007,0.005,0.011c-0.001,0.003-0.008,0.014-0.008,0.014s-0.005,0.015-0.007,0.017
			s-0.008,0.013-0.016,0.017c-0.009,0.002-0.02,0.004-0.02,0.01s0,0.022-0.001,0.026s-0.008,0.019-0.011,0.021
			c-0.004,0.002-0.03,0.004-0.035,0.006c-0.005,0-0.035-0.002-0.035-0.002l-0.012,0.008c0,0-0.004,0.01,0,0.01
			c0.004,0.001,0.013,0.005,0.018,0.006c0.005,0.002,0.01,0.009,0.005,0.014c-0.004,0.004-0.015,0.008-0.015,0.01
			s0.001,0.007-0.001,0.009c-0.003,0.002-0.014,0.001-0.016,0.002s-0.009-0.011-0.009-0.011l-0.016-0.002
			c0,0-0.004,0.004-0.009,0.004c-0.004,0.002-0.019,0.002-0.019,0.002l-0.003-0.006l-0.015-0.004v-0.014
			c0,0,0.023-0.007,0.025-0.007s0.01-0.013,0.01-0.013l0.009-0.004l0.004-0.021c0,0,0.002-0.018,0.005-0.018
			c0.004,0,0.041-0.007,0.043-0.007s0.007-0.014,0.007-0.014L25.068,38.084z M25.072,37.998h0.016v0.008l-0.002,0.007l-0.007,0.005
			l-0.004-0.009L25.072,37.998z M25.136,37.985v-0.011h0.012l0.005,0.008h0.011l0.007,0.009c0,0-0.007,0.006-0.009,0.007
			c-0.003,0-0.019-0.003-0.02-0.003C25.139,37.995,25.136,37.985,25.136,37.985z M25.263,38.089l-0.001-0.021l-0.014-0.007
			l-0.002-0.036h0.019v-0.028h0.049l0.001,0.028l0.014,0.005v0.014l0.015-0.002c0,0,0.01-0.007,0.01-0.01
			c0-0.002,0.002-0.017,0.002-0.017l0.007-0.009l0.022,0.006h0.02l0.002,0.013v0.02l-0.025,0.003l0.002,0.012h0.02l0.003,0.016
			l-0.011,0.019c0,0-0.012,0.005-0.02,0.005c-0.006,0-0.009,0.008-0.013,0.008c-0.004,0.002-0.014,0.013-0.021,0.015
			c-0.007,0.002-0.021,0.004-0.025,0.004c-0.004,0-0.032-0.012-0.032-0.012l0.002,0.02c0,0-0.006,0.013-0.008,0.013
			c-0.002,0-0.026,0.002-0.026,0.002v0.016l0.003,0.014l-0.008,0.008l-0.014-0.011l-0.019,0.006l0.005,0.011l0.011,0.006v0.024
			c0,0-0.01,0.003-0.014,0.002c-0.004-0.002-0.013-0.019-0.014-0.021c-0.001-0.003-0.012-0.023-0.014-0.024
			c-0.002-0.002-0.015-0.006-0.018-0.006c-0.003,0,0.005-0.014,0.005-0.014l0.013-0.008c0,0,0.006-0.012,0.009-0.013
			s0.009-0.009,0.009-0.009l0.006-0.014l0.008-0.016h0.021l0.009,0.01h0.012L25.263,38.089z M25.524,34.176
			c0.067,0.127,0.051,0.152-0.068,0.243c-0.118,0.094-0.101,0.144-0.169,0.304c-0.067,0.16-0.142,0.244-0.101,0.144
			c0.042-0.101-0.025-0.144-0.025-0.144s-0.076,0.144-0.093,0.26c-0.016,0.116-0.065,0.367-0.122,0.458
			c-0.001,0.002-0.003,0.004-0.004,0.006c-0.06,0.085-0.143,0.077-0.295,0.127c-0.152,0.051-0.169-0.059-0.338-0.085
			c-0.111-0.017-0.178-0.039-0.208-0.035c-0.016,0.002-0.022,0.012-0.019,0.035c0.008,0.067,0.126,0.067,0.261,0.126
			c0.134,0.061-0.076,0.076-0.008,0.178c0.068,0.101,0.118,0.075,0.118,0.178c0,0.1-0.017,0.168-0.134,0.303
			c-0.118,0.135-0.532,0.075-0.616,0.075c-0.083,0,0.052,0.143,0.109,0.236c0.06,0.094,0.017,0.101-0.041,0.177
			c-0.06,0.075-0.135-0.025-0.337-0.033c-0.202-0.009,0.017,0.143,0.025,0.21s0.161,0.06,0.253,0.109
			c0.093,0.052,0,0.068-0.109,0.161c-0.109,0.092,0,0.108,0,0.151s-0.025,0.143-0.143,0.159c-0.118,0.018-0.144,0.126-0.101,0.245
			c0.042,0.118,0.126,0.143,0.219,0.143s0.16-0.008,0.16,0.186s-0.017,0.109-0.084,0.127c-0.067,0.018-0.051,0.06-0.067,0.201
			c-0.017,0.144-0.008,0.101-0.118,0.119c-0.109,0.017-0.017,0.101,0.126,0.235c0.144,0.135,0.026,0.041,0.245,0.328
			s0.649,0.253,0.69,0.261l-0.161,0.06c0,0-0.092,0-0.135-0.009c-0.042-0.008-0.109,0-0.134,0S24,39.441,24,39.441
			s-0.006,0-0.018-0.002c-0.051-0.002-0.202-0.008-0.244-0.008c-0.05,0-0.167-0.033-0.235-0.067s-0.194-0.034-0.228-0.034
			c-0.033,0-0.193-0.152-0.193-0.152s-0.077-0.033-0.102-0.051s-0.033-0.068-0.033-0.068s-0.084-0.051-0.118-0.108
			c-0.033-0.061-0.076-0.043-0.076-0.043s-0.068-0.05-0.135-0.202c-0.024-0.055-0.036-0.075-0.043-0.081c0,0,0,0,0-0.003
			c0-0.042-0.118-0.169-0.16-0.209c-0.042-0.043-0.134-0.22-0.134-0.22s0.06-0.144,0.101-0.144s0.101-0.125,0.101-0.151
			s-0.076-0.011-0.126-0.017c-0.051-0.009-0.194-0.018-0.194-0.018s0.035-0.126,0.035-0.186s0.084-0.017,0.084-0.017l0.06-0.093
			c0,0,0.008-0.116-0.009-0.219c-0.016-0.101-0.033-0.201-0.033-0.235s-0.035-0.16-0.077-0.186c-0.042-0.025-0.042,0.067-0.034,0.16
			c0.008,0.092,0.042,0.194,0.008,0.229c-0.035,0.032-0.066-0.018-0.092-0.145c-0.025-0.127,0.042-0.201-0.017-0.201
			c-0.059,0-0.017-0.137-0.092-0.236c-0.077-0.102,0.033-0.193,0.042-0.296c0.008-0.101-0.135-0.177-0.21-0.312
			c-0.077-0.135,0.042-0.118,0.042-0.118s0.017-0.362,0.017-0.438c0-0.075-0.017-0.303-0.017-0.455c0-0.15-0.017-0.143-0.035-0.218
			c-0.016-0.076-0.117-0.252-0.05-0.202c0.068,0.05-0.017-0.338-0.017-0.338s-0.051-0.742-0.051-0.986
			c0-0.243-0.068-1.001-0.084-0.968c-0.014,0.027-0.038-0.026-0.072-0.058c-0.01-0.008-0.019-0.014-0.03-0.019
			c-0.051-0.017-0.125-0.144-0.185-0.236s-0.235-0.076-0.328-0.126s-0.193-0.126-0.354-0.244c-0.16-0.118-0.185-0.262-0.185-0.262
			s-0.033-0.092-0.084-0.186c-0.051-0.093-0.21-0.244-0.235-0.42c-0.025-0.177-0.109-0.337-0.194-0.505
			c-0.084-0.169-0.159-0.228-0.303-0.27c-0.142-0.042-0.042-0.16-0.042-0.21c0-0.223,0.036-0.299,0.071-0.333
			c0-0.022,0.056-0.024,0.063-0.047c0.017-0.051,0.109-0.176-0.008-0.144c-0.117,0.035-0.109-0.109-0.117-0.235
			c-0.009-0.126,0.025-0.143,0.051-0.169c0.025-0.025,0.092-0.051,0.059-0.186c-0.034-0.135,0.067-0.118,0.109-0.118
			c0.037,0,0.075-0.066,0.112-0.099c0.005-0.004,0.009-0.007,0.014-0.01c0.041-0.025,0,0-0.009-0.093
			c-0.008-0.093,0.035-0.083,0.144-0.118s0.109-0.202,0.109-0.237c0-0.034,0.017-0.531,0-0.589s-0.101-0.101-0.101-0.142
			c0-0.042,0-0.126-0.033-0.203c-0.034-0.076-0.152-0.035-0.194-0.017c-0.042,0.017-0.051,0.05-0.127,0.109
			c-0.017,0.014-0.026,0.021-0.031,0.026c0.001,0.004,0.003,0.008,0.005,0.01c0.012,0.007,0.042,0.021,0.059,0.083
			c0.034,0.118-0.152,0.058-0.152-0.018c0-0.076-0.134-0.134-0.227-0.134c-0.092,0-0.126-0.009-0.177-0.084
			c-0.051-0.076-0.034-0.084-0.219-0.135c-0.137-0.038-0.149-0.215-0.161-0.314c0.018-0.019,0.126,0.013,0.197,0.013
			c0.075,0,0.078,0.028,0.118,0.028c0.032,0,0.1,0.062,0.123,0.084c0,0.073,0.01,0.061,0.161,0.188
			c0.11,0.093,0.148,0.093,0.187,0.083c0.021-0.006,0.042-0.014,0.074-0.014c0.093,0,0.101-0.119,0.235-0.127
			s0.109,0.025,0.262,0.119c0.152,0.093-0.034,0.336-0.034,0.336s0.134-0.083,0.134-0.219c0-0.134,0.236-0.151,0.236-0.151
			s0-0.135,0-0.229c0-0.092,0.143-0.101,0.194-0.151c0.05-0.051,0.077,0.1,0.077,0.1s0.042-0.025,0.051-0.068
			c0.008-0.042,0.034-0.076,0.118-0.076s0.118-0.051,0.168-0.101c0.051-0.05,0.051-0.05,0.169-0.076
			c0.118-0.025,0.043,0.06,0.043,0.06s-0.06,0.033-0.111,0.058c-0.025,0.012-0.038,0.023-0.038,0.04
			c0,0.016,0.013,0.039,0.038,0.078c0.051,0.076-0.076,0.152-0.084,0.261c-0.008,0.109,0.084,0.136,0.168,0.136
			s0.026-0.109-0.051-0.21c-0.075-0.101,0.144-0.227,0.203-0.227c0.06,0,0.202,0,0.261,0s0.084,0.084,0.084,0.084
			s-0.009,0.101,0.101,0.101s0.118-0.06,0.236-0.06s0.169,0.119,0.235,0.101c0.067-0.017,0.152-0.126,0.152-0.126l0.371,0.051
			c0,0,0.034,0.025-0.109,0.025c-0.144,0,0.034,0.068,0.143,0.126c0.109,0.059,0.117,0.017,0.168,0.068
			c0.052,0.05-0.101,0.143-0.101,0.143s0.118,0.062,0.241,0.06c0.004,0,0.008,0,0.012,0c0.127-0.009,0.177,0.311,0.245,0.303
			c0.055-0.007,0.165,0.109,0.205,0.153c0.008,0.009,0.014,0.014,0.014,0.014s0.084,0,0.202,0c0.104,0,0.202,0.046,0.275,0.058
			c0.009,0.002,0.019,0.003,0.028,0.003c0.076,0,0.363,0.219,0.363,0.219l0.024,0.017l0.06,0.042c0,0,0.059,0.152,0.084,0.245
			c0.025,0.092-0.025,0.119,0.092,0.202c0.119,0.084,0.084,0.017,0.093,0.101c0.008,0.084-0.008,0.101-0.109,0.144
			c-0.101,0.042-0.017,0.125-0.017,0.125s0.134,0.017,0.194,0.017c0.059,0,0.126-0.008,0.151,0.084
			c0.013,0.046-0.014,0.097-0.045,0.136c0.019-0.021,0.039-0.042,0.053-0.06c0.043-0.051,0.118-0.084,0.194-0.059
			c0.076,0.025,0.16,0.077,0.303,0.143c0.144,0.067,0.152,0.067,0.152,0.152c0,0.054-0.01,0.134-0.018,0.186
			c0.014-0.015,0.034-0.034,0.059-0.061c0.169-0.159,0.278-0.041,0.338-0.008c0.059,0.035,0.134,0,0.219,0
			c0.084,0,0.117,0,0.193,0.008c0.076,0.01,0.211,0.161,0.253,0.194c0.042,0.035,0.109,0.118,0.27,0.227s0.134,0.034,0.262,0.034
			c0.126,0,0,0.093,0.042,0.211c0.043,0.118,0.059,0.218,0.059,0.421c0,0.202-0.093,0.303-0.194,0.387
			c-0.101,0.084-0.16,0.119-0.194,0.177c-0.035,0.059-0.009,0.093-0.076,0.22c-0.068,0.126-0.033,0.193-0.059,0.152
			c-0.025-0.043-0.109-0.152-0.109,0.034c0,0.186-0.009,0.69-0.017,0.816c-0.009,0.126-0.077,0.109-0.077,0.203
			c0,0.092-0.008,0.159-0.008,0.227c0,0.068-0.093,0.21-0.093,0.21l-0.042,0.228c0,0-0.009,0.058-0.118,0.058
			s-0.033,0.102-0.042,0.127s-0.253,0.018-0.362,0c-0.109-0.017-0.337,0.177-0.404,0.235c-0.068,0.059-0.219,0.237-0.312,0.328
			C25.331,33.931,25.457,34.05,25.524,34.176z M15.819,24.471c0-0.186-0.245-0.328-0.312-0.472
			c-0.067-0.143-0.135-0.075-0.161-0.186c-0.025-0.109,0.035-0.084-0.016-0.126c-0.051-0.042-0.144-0.143-0.144-0.218
			c0-0.077-0.093-0.052-0.143-0.109c-0.051-0.059-0.025-0.211-0.033-0.345c-0.008-0.135,0.033-0.227-0.092-0.295
			c-0.126-0.067-0.093,0.068-0.169,0.185c-0.076,0.119,0.008,0.144,0.051,0.194c0.042,0.051,0.06,0.144,0.076,0.278
			c0.017,0.136,0.126,0.161,0.143,0.32c0.017,0.16-0.017,0.346,0.076,0.404c0.093,0.059,0.144,0.135,0.093,0.279
			c-0.05,0.143-0.143-0.143-0.143-0.143l-0.236-0.22c0,0,0.016-0.126,0.016-0.177c0-0.051,0-0.051-0.025-0.152
			s-0.118-0.051-0.219-0.143c-0.101-0.093-0.127-0.126-0.042-0.126s0.092-0.033,0.118-0.117c0.025-0.085-0.042-0.085-0.118-0.177
			c-0.076-0.092-0.084-0.194-0.084-0.194s-0.006-0.276-0.021-0.409c-0.002-0.014-0.003-0.026-0.005-0.038
			c-0.017-0.109-0.025-0.202-0.194-0.27c-0.168-0.068-0.219-0.134-0.219-0.211c0-0.076,0.067-0.152,0.042-0.362
			c-0.025-0.21-0.084-0.193-0.126-0.388c-0.042-0.193,0.126-0.371,0.152-0.405c0.025-0.034,0.119-0.161,0.126-0.228
			c0.008-0.067,0.135-0.209,0.278-0.336c0.143-0.126,0.076-0.237,0.235-0.388c0.16-0.151,0.117-0.169,0.126-0.227
			c0.007-0.044,0.033-0.138,0.044-0.18c0.004-0.013,0.006-0.022,0.006-0.022l-0.011-0.04l-0.022-0.087c0,0,0-0.084-0.151-0.244
			c-0.152-0.16,0.151-0.092,0.151-0.092s0.001-0.002,0.002-0.003c0.001-0.001,0.002-0.003,0.003-0.006
			c0.001-0.001,0.002-0.003,0.002-0.004c0.003-0.006,0.008-0.014,0.012-0.025l0,0c0.004-0.008,0.009-0.017,0.013-0.026
			c0.018-0.036,0.035-0.076,0.035-0.088c0-0.025,0.009-0.152,0.009-0.152s0.029-0.208,0.041-0.37
			c0.005-0.068,0.006-0.128,0.001-0.162c-0.002-0.013-0.005-0.024-0.008-0.03l-0.026,0.044l-0.04,0.054l-0.055,0.014l-0.039-0.014
			c-0.008,0.004-0.017,0.006-0.026,0.008c-0.082,0.018-0.103,0.01-0.114-0.013c-0.003,0-0.005-0.001-0.006-0.001
			c-0.008-0.002-0.025-0.048-0.025-0.048s0-0.09,0-0.095c0-0.007,0.043-0.056,0.043-0.056l0.028-0.032
			c0.009-0.016,0.017-0.031,0.024-0.042c0.001-0.001,0.002-0.004,0.003-0.006c0.004-0.008,0.009-0.018,0.013-0.028
			c0.004-0.012,0.007-0.026,0.01-0.042l-0.027,0.018l-0.008-0.029c0,0-0.008-0.029,0.034-0.04c0.002-0.001,0.004-0.002,0.006-0.003
			c0-0.004,0.001-0.008,0.001-0.011c-0.001-0.053-0.011-0.108-0.032-0.153c-0.042-0.092-0.067-0.125-0.134-0.261
			c-0.067-0.134-0.144-0.008-0.286-0.093c-0.144-0.084-0.126-0.008-0.253-0.008c-0.125,0-0.084-0.033-0.152-0.118
			c-0.068-0.084-0.21,0-0.21,0s0,0.067-0.042,0.126c-0.043,0.059-0.051,0.025-0.354,0.068c-0.303,0.042-0.194,0.076-0.387,0.101
			c-0.194,0.025,0.312-0.235,0.312-0.235s-0.262,0.109-0.456,0.185c-0.193,0.076-0.008,0.034-0.186,0.126
			c-0.177,0.093-0.606,0.228-0.606,0.228c-0.783,0.371-1.407,0.472-1.819,0.548c-0.412,0.076,0.008-0.076,0.008-0.076
			c1.432-0.303,1.744-0.708,1.744-0.708s-0.059,0.042-0.101,0.042c-0.042,0-0.084-0.025-0.143-0.05
			c-0.06-0.025-0.06,0.017-0.169,0.034c-0.109,0.017-0.125-0.034-0.067-0.102c0.059-0.066,0.059-0.092,0.033-0.076
			c-0.025,0.017-0.152,0.026-0.152-0.076c0-0.101,0.261-0.134,0.261-0.134s-0.168,0-0.177-0.034
			c-0.009-0.035,0.109-0.161,0.185-0.186c0.076-0.025,0.236-0.051,0.278-0.084c0.042-0.033,0.101-0.109,0.194-0.109
			c0.092,0,0.16,0.042,0.185,0.008c0.025-0.034,0.161-0.085,0.253-0.085c0.092,0,0.126-0.008,0.193-0.075
			c0.068-0.068,0.228-0.109,0.228-0.109s-0.253,0.008-0.48,0.008s-0.101,0.017-0.278,0.017c-0.178,0,0.093-0.118,0.093-0.118
			s-0.093-0.018-0.043-0.043c0.051-0.025,0.152-0.1,0.337-0.118c0.186-0.017,0.202-0.051,0.253-0.058
			c0.051-0.009,0.084,0.025,0.186,0.043c0.101,0.016,0.21-0.01,0.277-0.017c0.068-0.009-0.016-0.051-0.084-0.051
			s-0.051,0.025-0.059-0.084c-0.009-0.109-0.077-0.136-0.102-0.16c-0.026-0.025,0.236-0.135,0.337-0.152
			c0.101-0.017,0.244-0.042,0.345-0.076c0.101-0.034,0.245-0.008,0.362-0.067c0.118-0.059,0.194-0.059,0.32-0.068
			c0.126-0.008,0.202-0.092,0.329-0.109c0.126-0.017,0.219,0,0.345,0c0.126,0,0.229,0.018,0.346,0.076c0.117,0.06,0,0,0.143,0
			s0.168,0.093,0.362,0.102c0.194,0.008,0.144-0.009,0.396-0.009c0.084,0,0.13,0.008,0.158,0.016c0.054,0.017,0.03,0.039,0.07,0.027
			c0.012-0.003,0.027-0.003,0.045-0.001c0.067,0.009,0.162,0.056,0.174,0.103c0.018,0.059,0.152,0.033,0.21,0.033
			c0.06,0,0.185-0.017,0.27-0.017s0.186,0,0.27-0.017c0.084-0.017,0.126-0.102,0.202-0.119c0.076-0.016,0.194,0.076,0.261,0.068
			c0.068-0.009,0.151-0.034,0.236-0.11c0.084-0.076,0.169-0.017,0.16,0.017c-0.008,0.035-0.093,0.076-0.025,0.101
			c0.066,0.026,0.101-0.017,0.143-0.076c0.042-0.058,0.152-0.025,0.152-0.025s-0.118,0.119-0.017,0.119
			c0.101,0,0.084-0.068,0.134-0.084c0.051-0.017,0.101,0,0.186,0.034c0.084,0.034,0.144,0.034,0.202,0.092
			c0.06,0.059,0.118,0,0.371,0c0.253,0,0.177,0.144,0.008,0.168c-0.168,0.025-0.109,0.068-0.109,0.068s0.413-0.06,0.548-0.06
			c0.134,0,0.101,0.008,0.144,0.076c0.043,0.068,0.017,0.101,0.06,0.126c0.042,0.025,0.059-0.05,0.076-0.109
			c0.017-0.059,0.093-0.092,0.16-0.135c0.068-0.042,0.16-0.025,0.321-0.025c0.16,0,0.202,0.135,0.202,0.135s0.144-0.025,0.245-0.042
			c0.101-0.017,0.126-0.017,0.169-0.017c0.043,0,0.16,0,0.245,0s0.109,0.026,0.109,0.127s0.06,0.017,0.093,0.017
			c0.033,0,0.025-0.076,0.076-0.109c0.05-0.035,0.118-0.085,0.177-0.127s0.177-0.042,0.262-0.093c0.084-0.05,0.219-0.05,0.27-0.109
			c0.05-0.058,0.033,0.135,0.042,0.168c0.008,0.034,0.068-0.008,0.151-0.084c0.084-0.076,0.16-0.017,0.236,0.084
			c0.076,0.101-0.042,0.101-0.152,0.109c-0.109,0.009-0.043,0.084,0.008,0.103c0.051,0.017,0,0,0.068-0.033
			c0.067-0.035,0.117-0.017,0.194-0.084c0.076-0.068,0.126-0.034,0.177-0.068c0.051-0.034,0.06-0.136,0.16-0.186
			c0.101-0.051,0.144,0,0.185,0c0.043,0,0.177,0.068,0.194,0.126c0.017,0.06-0.05,0.017-0.21,0.093
			c-0.16,0.075,0.034,0.059,0.051,0.143c0.017,0.084-0.076,0.058-0.278,0.109c-0.202,0.051-0.051,0.076-0.193,0.051
			c-0.144-0.025-0.051,0.035-0.144,0c-0.093-0.033-0.109,0-0.202,0c-0.092,0-0.084,0.017-0.117,0.092
			c-0.035,0.077-0.025,0.052-0.077,0.06c-0.051,0.009-0.118,0-0.186-0.008c-0.067-0.009-0.177-0.009-0.177-0.009
			s0.035,0.025,0.109,0.076c0.076,0.051,0.227,0.008,0.227,0.051c0,0.043-0.042,0.051-0.278,0.135
			c-0.237,0.084-0.043,0.034-0.169,0.034c-0.126,0-0.093,0.017-0.186,0.025c-0.093,0.009-0.379,0.051-0.21,0.06
			s-0.026,0.143-0.101,0.143c-0.472,0-0.985,0.674-0.985,0.674s0.194-0.017,0.194,0.084c0,0.1-0.134,0.244-0.134,0.244
			s0.144-0.025,0.312-0.025c0.168,0,0.253,0.21,0.387,0.21c0.135,0,0.177,0.118,0.177,0.118s0.371,0.026,0.413,0.026
			c0.042,0,0.025,0.058-0.068,0.159c-0.092,0.101,0.033,0.06-0.101,0.16c-0.134,0.101-0.05,0.068-0.076,0.186
			c-0.025,0.119,0.025,0.035,0.042,0.144c0.016,0.109,0.051,0.058,0.143,0.058c0.093,0,0.076-0.068,0.169-0.118
			c0.092-0.05,0.109-0.059,0.101-0.16c-0.009-0.101,0.067-0.329,0.067-0.329c0.573-0.119,0.674-0.354,0.707-0.446
			c0.034-0.093,0.025-0.102-0.092-0.228c-0.118-0.126,0.126-0.245,0.21-0.245s0.076-0.068,0.076-0.143
			c0-0.076,0.093-0.068,0.126-0.245c0.034-0.176,0.227-0.083,0.286-0.05c0.06,0.034,0.152-0.017,0.287-0.034
			c0.134-0.017,0.218,0.025,0.227,0.102c0.008,0.076,0.034,0.127,0.109,0.127c0.076,0,0.143,0.017,0.143,0.093
			s0.127,0.033-0.135,0.161c-0.262,0.125-0.034,0.135,0,0.142c0.034,0.009,0.068,0.009,0.084,0.102
			c0.017,0.092,0.067,0.058,0.101,0.008c0.034-0.051,0.144-0.084,0.295-0.16c0.152-0.076,0.287-0.253,0.287-0.253
			s0.117,0.521,0.067,0.666c-0.05,0.143-0.067,0.051-0.092,0.126c-0.027,0.076,0.084,0.119,0.193,0.186
			c0.109,0.067,0.076,0.025,0.202,0.059c0.126,0.033,0.126,0.05,0.042,0.068c-0.084,0.017-0.06,0.025-0.152,0.05
			c-0.093,0.026-0.126,0.043-0.27,0.068c-0.144,0.025-0.034,0.101,0.042,0.101c0.076,0,0.151-0.06,0.244-0.101
			c0.093-0.042,0.168-0.077,0.168,0.025s0.101,0.051,0.126,0.092c0.025,0.043,0,0.093-0.025,0.202
			c-0.026,0.109-0.084,0.109-0.32,0.126c-0.236,0.017-0.219,0.051-0.329,0.126c-0.109,0.076-0.134,0.084-0.177,0.084
			c-0.043,0-0.186,0.008-0.237,0c-0.05-0.008-0.227,0.025-0.328,0.017c-0.101-0.008-0.346,0.008-0.412,0.008
			c-0.068,0-0.051,0.084-0.084,0.109c-0.034,0.025-0.118,0.051-0.118,0.051s-0.091,0.039-0.149,0.063
			c-0.06,0.025-0.06,0.042-0.161,0.084c-0.101,0.042-0.134,0.118-0.227,0.16c-0.093,0.042-0.152,0.093-0.152,0.093
			s0.033,0.06,0.092,0.051c0.007-0.001,0.016-0.006,0.027-0.013c0.034-0.02,0.084-0.062,0.139-0.109
			c0.091-0.079,0.193-0.166,0.23-0.166c0.067,0,0.186-0.093,0.337-0.143c0.152-0.051,0.194,0.009,0.363,0.009
			c0.168,0,0,0.143-0.051,0.202c-0.05,0.059-0.05,0.051-0.109,0.084c-0.06,0.034-0.06,0.136-0.068,0.194
			c-0.008,0.059,0.118,0.084,0.194,0.101c0.076,0.017,0.152,0,0.177-0.008s0.109-0.008,0.118-0.068
			c0.008-0.058,0.118-0.126,0.152-0.126c0.034,0-0.093,0.152-0.009,0.143c0.084-0.009,0.126,0.042,0.034,0.117
			c-0.093,0.077-0.177,0.126-0.21,0.126s-0.202,0.084-0.278,0.084c-0.076,0-0.169,0.067-0.278,0.067s-0.093,0-0.21,0.118
			c-0.118,0.118-0.177-0.076-0.084-0.202c0.092-0.126,0.346-0.185,0.286-0.177c-0.06,0.009-0.126,0.06-0.21,0.076
			c-0.036,0.008-0.067,0.018-0.093,0.032c-0.031,0.019-0.051,0.042-0.051,0.069c0,0.035-0.048,0.038-0.11,0.037
			c-0.029,0-0.061-0.002-0.092-0.002c-0.101,0-0.135,0.093-0.253,0.118c-0.118,0.025-0.177,0.076-0.295,0.286
			c-0.084,0.151-0.052,0.18-0.027,0.186c-0.036,0-0.116,0-0.167,0c-0.068,0-0.152,0.068-0.328,0.093
			c-0.177,0.026-0.152,0.008-0.16,0.11c-0.009,0.1-0.21,0.295-0.21,0.295l-0.084-0.034c0,0,0.025,0.084-0.101,0.244
			c-0.126,0.16-0.076,0.06-0.084-0.219c-0.009-0.278-0.052,0.068-0.052,0.068s0,0.161,0,0.22c0,0.058-0.109,0.084-0.143,0.092
			c-0.034,0.009,0.101,0.017,0.101,0.017l0.017,0.101l-0.144,0.068h0.109v0.109c0,0-0.067,0.042-0.109,0.042
			s-0.025,0.051-0.076,0.051c-0.051,0-0.042,0.05-0.127,0.143c-0.083,0.093-0.076,0.042-0.219,0.101
			c-0.144,0.059-0.169,0.118-0.447,0.312c-0.277,0.194-0.168,0.447-0.168,0.472c0,0.025,0.034,0.237,0.034,0.505
			c0,0.27,0.009,0.169-0.101,0.346c-0.109,0.177-0.152,0-0.219-0.126c-0.067-0.125-0.067-0.253-0.076-0.371
			c-0.008-0.117-0.017-0.126,0.008-0.193c0.026-0.068-0.109-0.101-0.177-0.21c-0.067-0.109-0.067,0.008-0.143,0.067
			c-0.076,0.06-0.109-0.009-0.177-0.136c-0.068-0.126-0.068,0.068-0.371,0c-0.303-0.068-0.22,0.06-0.22,0.06
			s0.017,0.093-0.076,0.161c-0.093,0.067-0.134,0-0.194-0.06c-0.058-0.059-0.109,0-0.21,0c-0.101,0-0.067,0-0.336,0
			c-0.27,0-0.093,0.025-0.186,0.135c-0.092,0.109-0.034,0.051-0.21,0.109c-0.177,0.059-0.177,0.134-0.185,0.227
			c-0.006,0.069-0.026,0.142-0.04,0.203c-0.005,0.021-0.009,0.041-0.012,0.059c-0.008,0.067-0.076,0.067-0.093,0.236
			c-0.017,0.167-0.084,0.456-0.084,0.64c0,0.186,0.109,0.236,0.161,0.354c0.051,0.119,0.025,0.101,0.143,0.101
			c0.118,0,0.017,0.127,0.186,0.127c0.169,0,0.262-0.143,0.346-0.06c0.084,0.084,0.109,0.008,0.092-0.024
			c-0.017-0.033,0.017-0.076,0.102-0.135c0.084-0.059,0.109-0.144,0.109-0.303c0-0.16,0.328-0.152,0.547-0.152
			c0.219,0,0.093,0.135,0.042,0.202c-0.051,0.066-0.076,0.101-0.076,0.244c0,0.074,0,0.098-0.011,0.123
			c-0.011,0.024-0.032,0.047-0.073,0.112c-0.084,0.136-0.034,0.101-0.102,0.236c-0.067,0.134-0.033,0.05-0.126,0.152
			c-0.014,0.015-0.022,0.025-0.026,0.033c-0.021,0.036,0.056-0.001,0.121,0.007c0.012,0.001,0.022,0.005,0.033,0.009
			c0.076,0.042,0.117-0.025,0.354-0.033c0.236-0.008,0.295,0.068,0.295,0.068s0.027,0.047,0.052,0.108
			c0.021,0.051,0.04,0.11,0.04,0.161c0,0-0.022,0.086-0.045,0.138c-0.021,0.051,0,0.174-0.056,0.276
			c-0.056,0.101-0.048,0.143-0.045,0.208c0.003,0.064-0.064,0.037-0.123-0.005c-0.06-0.042-0.076-0.067-0.124-0.127
			c-0.047-0.059-0.05-0.059-0.093-0.068c-0.042-0.009-0.006,0.102,0.017,0.135c0.019,0.027-0.022,0.025-0.036,0.023
			c-0.002-0.007-0.005-0.013-0.009-0.015c-0.033-0.016-0.144-0.118-0.227-0.185c-0.05-0.041-0.029-0.103-0.038-0.145
			c-0.002-0.01-0.006-0.021-0.015-0.029c-0.012-0.013-0.035-0.021-0.075-0.021c-0.16,0-0.092-0.042-0.253-0.042
			c-0.056,0-0.123-0.022-0.188-0.054c-0.083-0.04-0.163-0.091-0.214-0.127c-0.025-0.017-0.043-0.032-0.052-0.039
			c-0.042-0.033-0.202-0.278-0.286-0.304c-0.084-0.025-0.177,0.051-0.219,0.127c-0.042,0.076-0.211-0.051-0.346-0.084
			c-0.134-0.034-0.084-0.034-0.202-0.101c-0.118-0.068-0.396-0.27-0.396-0.27s-0.152-0.034-0.235-0.042
			c-0.084-0.01-0.303-0.253-0.379-0.328c-0.076-0.076,0.009-0.126,0.06-0.21C15.827,24.672,15.819,24.656,15.819,24.471z
			 M5.298,33.181v-2.074h2.094v2.12H5.303C5.303,33.211,5.298,33.197,5.298,33.181z M10.831,30.014L10.831,30.014l-0.547,0.001
			v3.212h-1.8v-5.301h2.068c1.319,0,2.423,0.885,2.784,2.088H10.831z M7.393,30.014H5.434c0.281-0.94,1.017-1.676,1.959-1.955
			V30.014z M7.393,34.32v1.646c-0.837-0.25-1.522-0.852-1.861-1.646H7.393z M8.484,34.32h1.8v1.777h-1.8V34.32z M11.377,34.32h1.861
			c-0.338,0.794-1.025,1.396-1.861,1.646V34.32z M11.377,33.227v-2.12h2.094v2.074c0,0.016-0.004,0.031-0.005,0.046H11.377z
			 M6.664,45.127l-0.493-0.742c-0.153-0.231-0.053-0.42,0.225-0.42h0.022c0.277,0,0.615,0.195,0.754,0.436l0.034,0.061
			c0.139,0.24,0.362,0.238,0.498-0.002l0.03-0.055c0.137-0.242,0.47-0.438,0.746-0.438c0.276,0,0.374,0.187,0.219,0.416l-0.493,0.73
			c-0.155,0.231-0.156,0.604-0.002,0.835l0.538,0.804c0.154,0.231,0.054,0.418-0.224,0.418H8.478c-0.277,0-0.614-0.194-0.752-0.436
			l-0.053-0.094c-0.138-0.24-0.362-0.242-0.501-0.001l-0.055,0.095C6.978,46.976,6.64,47.17,6.362,47.17H6.349
			c-0.278,0-0.377-0.187-0.222-0.416l0.533-0.793C6.816,45.732,6.817,45.357,6.664,45.127z M10.019,45.127l-0.493-0.742
			c-0.153-0.231-0.053-0.42,0.225-0.42h0.023c0.278,0,0.616,0.195,0.754,0.436l0.035,0.061c0.138,0.24,0.362,0.238,0.498-0.002
			l0.03-0.055c0.137-0.242,0.47-0.438,0.746-0.438s0.373,0.187,0.218,0.416l-0.493,0.73c-0.155,0.231-0.156,0.604-0.002,0.835
			l0.538,0.804c0.154,0.231,0.054,0.418-0.225,0.418h-0.041c-0.277,0-0.614-0.194-0.752-0.436l-0.053-0.094
			c-0.137-0.24-0.362-0.242-0.501-0.001l-0.055,0.095c-0.139,0.241-0.477,0.436-0.754,0.436H9.703c-0.277,0-0.377-0.187-0.222-0.416
			l0.534-0.793C10.171,45.732,10.172,45.357,10.019,45.127z M13.373,45.127l-0.492-0.742c-0.153-0.231-0.054-0.42,0.225-0.42h0.023
			c0.277,0,0.614,0.195,0.754,0.436l0.034,0.061c0.139,0.24,0.361,0.238,0.498-0.002l0.03-0.055
			c0.136-0.242,0.469-0.438,0.746-0.438s0.373,0.187,0.218,0.416l-0.493,0.73c-0.155,0.231-0.156,0.604-0.002,0.835l0.538,0.804
			c0.154,0.231,0.055,0.418-0.224,0.418h-0.041c-0.277,0-0.615-0.194-0.752-0.436l-0.053-0.094c-0.137-0.24-0.363-0.242-0.501-0.001
			l-0.056,0.095c-0.138,0.241-0.477,0.436-0.754,0.436h-0.013c-0.278,0-0.377-0.187-0.222-0.416l0.533-0.793
			C13.525,45.732,13.526,45.357,13.373,45.127z M21.323,14.584l-0.144,0.048l0.287,0.072L21.31,14.74c0,0,0.251,0.072,0.275,0.013
			c0.024-0.061,0.132-0.168,0.192-0.168c0.06,0,0.036,0.095,0.036,0.095l0.252,0.024l-0.3,0.156c0,0-0.264-0.012-0.335,0
			c-0.072,0.011-0.144,0.037-0.275,0.037c-0.132,0-0.324,0.024-0.36,0.011c-0.035-0.011,0.072-0.048,0.204-0.06
			c0.131-0.012-0.216-0.059-0.312-0.048c-0.095,0.012-0.227-0.035-0.179-0.047s0.096-0.037,0.179-0.061
			c0.083-0.024-0.035-0.059-0.108-0.048c-0.071,0.013-0.311,0.084-0.359,0.084s-0.203-0.096-0.144-0.096
			c0.061,0,0.12-0.048,0.288-0.06c0.167-0.012,0.191-0.061,0.31-0.061c0.12,0,0.192-0.012,0.288,0
			c0.096,0.012,0.239-0.024,0.239-0.024s-0.095,0.096-0.061,0.12C21.179,14.631,21.323,14.584,21.323,14.584z M24.543,14.356
			c-0.035,0-0.191,0.012-0.263,0.024c-0.072,0.012-0.192,0.012-0.24,0.012s-0.155-0.096-0.155-0.096l-0.012-0.132
			c0,0,0.107-0.131,0.18-0.131c0.072,0,0.24,0,0.288,0s0.143-0.024,0.143-0.024s0.108,0.011,0.144,0.048
			c0.037,0.035,0.132,0.035,0.132,0.035l-0.024-0.083v-0.108c0,0,0.06-0.083,0.192-0.083s0.263,0.037,0.574-0.024
			c0.312-0.06,0.288-0.072,0.586-0.072s0.263,0,0.455,0s0.275,0,0.443,0s0.203,0,0.335,0c0.131,0,0.168-0.012,0.335,0
			c0.167,0.012,0.288,0.12,0.288,0.12l-0.228,0.037c0,0-0.25,0.048-0.347,0.059c-0.096,0.012-0.275,0.06-0.371,0.06
			c-0.095,0-0.191,0.131-0.274,0.144c-0.084,0.012-0.168,0.012-0.275,0.012c-0.107,0-0.503-0.024-0.575,0
			c-0.072,0.024-0.179,0.18-0.119,0.18c0.059,0,0.239-0.013,0.203,0c-0.035,0.011-0.407,0.047-0.407,0.047l-0.048,0.06
			c0,0-0.12,0.024-0.24,0.024c-0.12,0-0.083,0.084-0.048,0.12c0.037,0.037-0.119,0.037-0.119,0.037l-0.432-0.012
			c0,0-0.239,0.024-0.275,0.024c-0.037,0-0.432,0.024-0.432,0.024s-0.467,0.107-0.108,0.107c0.36,0,0.671-0.035,0.707-0.035
			c0.035,0,0.335,0.011,0.335,0.011s-0.011,0.12-0.192,0.144c-0.179,0.024-0.252,0.061-0.335,0.061c-0.084,0-0.18-0.012-0.3-0.012
			c-0.12,0-0.227,0-0.335,0c-0.108,0-0.216,0-0.252,0c-0.036,0-0.084-0.167-0.012-0.179c0.072-0.013,0.083-0.155,0.083-0.155h-0.24
			c0,0,0.083-0.156,0.168-0.12c0.084,0.036,0.252,0.084,0.335,0.084c0.084,0,0.131-0.049,0.18-0.049c0.048,0,0.12,0,0.192,0
			c0.072,0,0.144-0.072,0.191-0.072c0.048,0,0.168,0,0.168,0s0.061,0.036,0.096,0.036c0.035,0,0.048-0.06,0.048-0.06
			S24.579,14.356,24.543,14.356z M23.334,15.218l0.288-0.155c0,0,0.144,0.107,0.12,0.144s-0.12,0.107-0.12,0.107
			s0.083,0.155,0.131,0.155c0.047,0,0.047-0.347,0.095-0.371l0.155-0.095l-0.107,0.131l0.131-0.048l0.192-0.011l0.227-0.012v0.083
			l-0.096,0.084l-0.096,0.072c0,0,0.251-0.024,0.287-0.024s0.168-0.011,0.168-0.011s-0.084-0.06-0.144-0.06
			s-0.144-0.156,0.012-0.168c0.156-0.011,0.371,0.096,0.407,0.096c0.037,0-0.011,0.072-0.059,0.084
			c-0.048,0.011,0.179,0.059,0.132,0.084c-0.047,0.024,0.167,0.084,0.167,0.084l0.036,0.107c0,0,0.24,0.096,0.096,0.096
			c-0.144,0,0.144,0.083,0.298,0.096c0.156,0.013-0.059,0.096-0.059,0.096s-0.288-0.011-0.275,0.061
			c0.013,0.072,0.155,0.012,0.312,0.083c0.155,0.072,0.12,0.083,0.335,0.181c0.216,0.096,0.132,0.155-0.072,0.166
			c-0.203,0.013-0.144,0.072-0.24,0.144c-0.095,0.072-0.108,0.048-0.131-0.024c-0.024-0.072-0.167-0.18-0.227-0.18
			s-0.144,0.096-0.144,0.096s0,0.06,0.144,0.216s-0.013,0.144-0.084,0.264c-0.072,0.119-0.179,0.048-0.263-0.06
			c-0.083-0.107-0.179-0.048-0.024,0.107c0.155,0.156-0.024,0.132-0.024,0.167c0,0.036-0.204-0.072-0.276-0.084
			c-0.072-0.012-0.24-0.024-0.262-0.227c-0.024-0.204-0.371-0.12-0.456-0.12s-0.048,0.037-0.179,0.037
			c-0.132,0,0.095-0.192,0.095-0.192s0.12-0.037,0.179-0.06c0.061-0.024,0.216,0.036,0.299,0.036c0.084,0,0.096-0.072,0.096-0.072
			s0.083-0.179,0.191-0.191c0.107-0.012,0.18-0.072,0.18-0.157c0-0.084-0.168-0.131-0.192-0.227c-0.024-0.096-0.275-0.18-0.275-0.18
			l-0.107,0.083c0,0-0.192,0-0.396,0c-0.203,0-0.467-0.048-0.467-0.048h-0.179l-0.011-0.084l0.227-0.059l-0.215-0.013l0.011-0.144
			L23.334,15.218z M25.322,18.941c0,0,0,0,0.203-0.011c0.175-0.011-0.173,0.164-0.25,0.199c0.05-0.011,0.177,0.028,0.177,0.028
			l-0.083,0.096c0,0,0.037,0.048,0.12,0.012c0.084-0.036,0.215,0.036,0.215,0.036l-0.012,0.133v0.131l0.024,0.061
			c0,0-0.011,0.072-0.06,0.108c-0.047,0.035-0.131,0.035-0.131,0.035l-0.12-0.071l-0.024-0.107c0,0-0.131,0.072-0.419,0.072
			s-0.288,0-0.288,0s0.108-0.275,0.192-0.3c0.084-0.024,0.155-0.096,0.229-0.203c0.071-0.108,0.239-0.191,0.239-0.191L25.322,18.941
			z M23.047,15.206c-0.061,0.011-0.156,0.011-0.156,0.011l-0.179,0.12l-0.048,0.132v0.121h-0.191l-0.144,0.107h-0.155l-0.048-0.121
			c0,0,0.107-0.095,0.179-0.119c0.072-0.024,0.203-0.156,0.251-0.156c0.048,0,0.072-0.156,0.12-0.18s0.216-0.131,0.275-0.168
			c0,0,0.395,0.084,0.359,0.096C23.274,15.062,23.106,15.194,23.047,15.206z M23.274,14.87c0,0-0.108,0.024-0.157,0.012
			c-0.047-0.012-0.191,0-0.191,0l0.132-0.12c0,0,0.131-0.024,0.191-0.024C23.31,14.739,23.274,14.87,23.274,14.87z M23.143,14.428
			l-0.12-0.012l-0.036-0.06l-0.167,0.012l-0.012-0.061l-0.132-0.036l0.228-0.036h0.132l0.12,0.06L23.143,14.428z M22.688,14.679
			l0.011-0.083l0.192,0.035l-0.048,0.097c0,0-0.024,0.059-0.048,0.107c-0.024,0.048-0.108,0.012-0.18,0.012
			c-0.072,0-0.167,0-0.167,0l-0.036-0.119c0,0,0.119-0.096,0.155-0.12s0.036,0.107,0.048,0.155
			C22.628,14.811,22.688,14.679,22.688,14.679z M22.652,14.966c0.024,0.061-0.12,0.179-0.12,0.179h-0.108
			c0,0,0.037,0.179-0.024,0.191c-0.06,0.012-0.24,0.037-0.24,0.037s0,0.072-0.144,0.072c-0.144,0-0.072-0.12-0.072-0.12
			l-0.143-0.072c0,0,0.061-0.144,0.167-0.096c0.108,0.048,0.108,0.048,0.108,0.048l0.048-0.131l0.107-0.06c0,0,0.12,0,0.179,0
			C22.472,15.015,22.628,14.907,22.652,14.966z M21.61,15.661c-0.096,0.048-0.288,0.048-0.323,0.048
			c-0.036,0,0.156,0.096-0.048,0.096c-0.203,0-0.168,0.059-0.36,0c-0.192-0.06-0.18-0.132-0.239-0.096
			c-0.059,0.037-0.288,0.132-0.527,0.132c-0.239,0-0.335,0.012-0.335,0.012l-0.013-0.107c0,0-0.312,0.048-0.288-0.072
			c0.024-0.12,0.227-0.12,0.407-0.12s0.335,0,0.335,0s-0.515-0.072-0.562-0.084c-0.048-0.011,0.048-0.048,0.168-0.048
			c0.12,0-0.083-0.048-0.013-0.132c0.072-0.083,0.108-0.095,0.263-0.095c0.155,0,0.192-0.024,0.348-0.011
			c0.156,0.011,0.168-0.037,0.264,0.011c0.095,0.048,0.215,0.072,0.263,0.024c0.048-0.048-0.051,0.076,0.012,0.048
			c0.06-0.026,0.078,0.033,0.083,0.07c0-0.004,0-0.006,0-0.011c0-0.131,0.179-0.24,0.275-0.215c0.096,0.023,0.132,0.096,0.132,0.096
			l0.011-0.168h0.264c0,0-0.024,0.048-0.072,0.048c0,0-0.264,0.204-0.312,0.359C21.299,15.601,21.706,15.613,21.61,15.661z
			 M20.342,14.895c0.035,0.024,0.107,0.155,0.107,0.155l-0.12,0.073c-0.037,0-0.586,0.072-0.802,0.203
			c-0.215,0.132-0.239,0.144-0.299,0.144s-0.216-0.107-0.216-0.107s-0.371-0.06-0.203-0.072c0.167-0.012,0.25-0.083,0.347-0.131
			c0.096-0.048,0.132-0.036,0.227-0.083c0.096-0.048,0.083-0.048,0.107-0.096c0.024-0.048-0.036-0.084,0.107-0.06
			c0.144,0.024,0.384,0.024,0.467,0.024C20.15,14.942,20.305,14.87,20.342,14.895z M20.377,24.771
			c0.037-0.037-0.035-0.156-0.035-0.156s-0.133,0.071-0.18,0.011c-0.048-0.059-0.179-0.084-0.274-0.084
			c-0.096,0-0.061-0.095-0.131-0.107c-0.072-0.012-0.347,0.119-0.383,0.119c0,0-0.013-0.047,0.048-0.107
			c0.059-0.061,0.215-0.157,0.371-0.168c0.155-0.013,0.144,0,0.228,0.072c0.083,0.072,0.108,0,0.442,0.192
			c0.335,0.191,0.575,0.395,0.575,0.395c-0.192,0.084-0.611,0-0.575-0.011c0.036-0.012,0.036-0.108,0.036-0.108
			S20.342,24.808,20.377,24.771z M16.727,45.127l-0.493-0.742c-0.153-0.231-0.053-0.42,0.225-0.42h0.023
			c0.277,0,0.614,0.195,0.754,0.436l0.035,0.061c0.138,0.24,0.361,0.238,0.498-0.002l0.03-0.055c0.137-0.242,0.47-0.438,0.746-0.438
			c0.275,0,0.373,0.187,0.218,0.416l-0.493,0.73c-0.155,0.231-0.156,0.604-0.002,0.835l0.538,0.804
			c0.154,0.231,0.054,0.418-0.224,0.418h-0.04c-0.278,0-0.615-0.194-0.752-0.436l-0.053-0.094c-0.138-0.24-0.362-0.242-0.501-0.001
			l-0.055,0.095c-0.139,0.241-0.477,0.436-0.754,0.436h-0.014c-0.277,0-0.377-0.187-0.222-0.416l0.534-0.793
			C16.879,45.732,16.881,45.357,16.727,45.127z M26.788,45.127l-0.493-0.742c-0.153-0.231-0.054-0.42,0.225-0.42h0.023
			c0.277,0,0.615,0.195,0.754,0.436l0.035,0.061c0.138,0.24,0.361,0.238,0.498-0.002l0.03-0.055c0.136-0.242,0.47-0.438,0.746-0.438
			c0.276,0,0.373,0.187,0.218,0.416l-0.492,0.73c-0.156,0.231-0.157,0.604-0.002,0.835l0.537,0.804
			c0.154,0.231,0.055,0.418-0.224,0.418h-0.041c-0.277,0-0.615-0.194-0.752-0.436l-0.053-0.094c-0.138-0.24-0.363-0.242-0.501-0.001
			l-0.056,0.095c-0.138,0.241-0.477,0.436-0.754,0.436h-0.014c-0.278,0-0.377-0.187-0.222-0.416l0.533-0.793
			C26.941,45.732,26.942,45.357,26.788,45.127z M59.361,37.85c-0.085-0.018-0.145-0.061-0.145-0.061
			c-0.024,0-0.151,0.043-0.161-0.025c-0.008-0.066,0.077-0.108,0.204-0.201c0.126-0.093,0.496-0.244,0.63-0.312
			c0.136-0.066,0.312-0.102,0.447-0.261c0.135-0.16,0.211-0.127,0.211-0.127s0.102-0.151,0.178-0.168
			c0.075-0.018,0.084,0.034,0.084,0.034l0.017,0.083l0.145-0.067c0,0-0.06,0.117-0.103,0.159c-0.042,0.043-0.185,0.16-0.235,0.186
			s-0.118,0.034-0.193,0.108c-0.075,0.077-0.06,0.136-0.11,0.136s-0.177,0-0.227,0.033c-0.05,0.035-0.108,0.111-0.219,0.187
			c-0.109,0.076-0.15,0.21-0.312,0.243C59.411,37.833,59.444,37.868,59.361,37.85z"/>
	</g>
</g>
<g>
</g>
<g>
</g>
<g>
</g>
<g>
</g>
<g>
</g>
<g>
</g>
<g>
</g>
<g>
</g>
<g>
</g>
<g>
</g>
<g>
</g>
<g>
</g>
<g>
</g>
<g>
</g>
<g>
</g>
</svg>
